<?xml version="1.0" encoding="utf-8"?>
<!-- Generator: Adobe Illustrator 22.1.0, SVG Export Plug-In . SVG Version: 6.00 Build 0)  -->
<svg version="1.1" id="图层_1" xmlns="http://www.w3.org/2000/svg" xmlns:xlink="http://www.w3.org/1999/xlink" x="0px" y="0px"
	 viewBox="0 0 110 60" style="enable-background:new 0 0 110 60;" xml:space="preserve">
<style type="text/css">
	.st0{opacity:0.51;}
	.st1{fill:#D7ECE8;}
	.st2{fill:#A8C8C5;}
	.st3{fill:#C9D499;}
	.st4{fill:#FFFFFF;}
	.st5{fill:#75C0E0;}
	.st6{fill:#B7D8D2;}
	.st7{fill:none;stroke:#7BADA7;stroke-miterlimit:10;}
	.st8{fill:none;stroke:#5A847F;stroke-miterlimit:10;}
	.st9{fill:#C5DDD9;}
	.st10{fill:#BDD8D3;}
	.st11{fill:#65B3D0;}
	.st12{fill:#6B2E40;}
	.st13{fill:#FAC8BF;}
	.st14{fill:#EDA19F;}
	.st15{fill:#63B5CE;}
	.st16{fill:#0A4494;}
	.st17{fill:#0387D9;}
	.st18{fill:#904B57;}
	.st19{fill:#BD7D81;}
	.st20{fill:none;stroke:#904B57;stroke-width:2;stroke-linecap:round;stroke-miterlimit:10;}
	.st21{fill:none;stroke:#B35267;stroke-width:2;stroke-linecap:round;stroke-miterlimit:10;}
	.st22{fill:#363857;}
	.st23{fill:#B35267;}
	.st24{fill:#FFEDEF;}
	.st25{fill:#E6919D;}
	.st26{fill:none;stroke:#363857;stroke-miterlimit:10;}
	.st27{opacity:0.949;}
	.st28{fill:#12252B;}
	.st29{fill:#597375;}
	.st30{fill:#1B2E34;}
	.st31{fill:#324B4F;}
	.st32{fill:none;stroke:#0A4494;stroke-miterlimit:10;}
	.st33{fill:#FF785D;}
	.st34{fill:#2D3554;}
</style>
<g>
	<g id="XMLID_184_" class="st0">
		<g>
			<path id="XMLID_132_" class="st1" d="M82,58.8c4.7-6.1,8.2-13.3,8.8-20.9c0.6-7.6-2-15.8-7.8-20.8c-5.8-5-15-6.2-21.3-2
				c-5.8,3.9-8.8,11.5-15.3,14c-3.3,1.3-7,1-10.3,2c-6,1.7-10.6,7.4-10.9,13.6c-0.3,6.2,3.6,12.4,9.7,14.4
				C49.9,58.7,65,58.4,82,58.8z"/>
			<path id="XMLID_124_" class="st1" d="M55.2,16.1c-1.5,6-7.6,10.5-13.8,10.3c-3.3-0.1-6.7-1.6-8.3-4.5c-1.6-2.8-0.9-7.1,2-8.6
				c2.5-1.3,5.6-0.4,8.3-1.3c2.5-0.8,4.6-3.1,7.2-3.3c1.5-0.1,3,0.5,4,1.6C55.6,11.5,55.9,13.1,55.2,16.1z"/>
		</g>
	</g>
	<g id="XMLID_213_">
		<g>
			<path id="XMLID_253_" class="st2" d="M43,33.2l0.3-1.7L42,31.3c0-0.4-0.1-0.8-0.2-1.2l1.1-0.8L42,27.9l-1.1,0.8
				c-0.3-0.3-0.7-0.5-1-0.7l0.3-1.3l-1.7-0.3l-0.3,1.3c-0.4,0-0.8,0.1-1.2,0.2l-0.8-1.1l-1.4,0.9l0.8,1.1c-0.3,0.3-0.5,0.6-0.7,1
				l-1.3-0.3l-0.3,1.7l1.3,0.3c0,0.4,0.1,0.8,0.2,1.2l-1.1,0.8l0.9,1.4l1.1-0.8c0.3,0.3,0.6,0.5,1,0.7l-0.3,1.3l1.7,0.3l0.3-1.3
				c0.4,0,0.8-0.1,1.2-0.2l0.8,1.1l1.4-0.9L41,34c0.3-0.3,0.5-0.7,0.7-1L43,33.2z M37.8,33.5c-1.2-0.2-1.9-1.4-1.7-2.5
				c0.2-1.2,1.4-1.9,2.5-1.7c1.2,0.2,1.9,1.4,1.7,2.5C40.1,33,39,33.7,37.8,33.5z"/>
			<path id="XMLID_250_" class="st2" d="M48.6,38.8l0.4-1.2l-0.9-0.3c0-0.3,0-0.6-0.1-0.9l0.9-0.4l-0.6-1.1l-0.9,0.4
				c-0.2-0.2-0.4-0.4-0.7-0.6l0.3-0.9l-1.2-0.4l-0.3,0.9c-0.3,0-0.6,0-0.9,0.1l-0.4-0.9l-1.1,0.6l0.4,0.9c-0.2,0.2-0.4,0.4-0.6,0.7
				L42,35.4l-0.4,1.2l0.9,0.3c0,0.3,0,0.6,0.1,0.9l-0.9,0.4l0.6,1.1l0.9-0.4c0.2,0.2,0.4,0.4,0.7,0.6l-0.3,0.9l1.2,0.4l0.3-0.9
				c0.3,0,0.6,0,0.9-0.1l0.4,0.9l1.1-0.6l-0.4-0.9c0.2-0.2,0.4-0.4,0.6-0.7L48.6,38.8z M44.8,38.6c-0.8-0.3-1.3-1.1-1-2
				c0.3-0.8,1.1-1.3,2-1c0.8,0.3,1.3,1.1,1,2C46.5,38.4,45.7,38.8,44.8,38.6z"/>
			<path id="XMLID_247_" class="st2" d="M50.7,31.3l0.1-0.8l-0.6-0.1c0-0.2,0-0.4-0.1-0.6l0.5-0.4l-0.4-0.7l-0.5,0.4
				c-0.1-0.1-0.3-0.2-0.5-0.3l0.1-0.6l-0.8-0.1l-0.1,0.6c-0.2,0-0.4,0-0.6,0.1l-0.4-0.5l-0.7,0.4l0.4,0.5c-0.1,0.1-0.2,0.3-0.3,0.5
				l-0.6-0.1l-0.1,0.8l0.6,0.1c0,0.2,0,0.4,0.1,0.6l-0.5,0.4l0.4,0.7l0.5-0.4c0.1,0.1,0.3,0.2,0.5,0.3l-0.1,0.6l0.8,0.1l0.1-0.6
				c0.2,0,0.4,0,0.6-0.1l0.4,0.5l0.7-0.4l-0.4-0.5c0.1-0.1,0.2-0.3,0.3-0.5L50.7,31.3z M48.3,31.5c-0.5-0.1-0.9-0.6-0.8-1.2
				c0.1-0.5,0.6-0.9,1.2-0.8c0.5,0.1,0.9,0.6,0.8,1.2C49.3,31.2,48.8,31.6,48.3,31.5z"/>
		</g>
	</g>
	<g id="XMLID_233_">
		<g>
			<path id="XMLID_199_" class="st3" d="M92.1,34.5l-0.1-1.8l-1.4,0.1c-0.1-0.4-0.3-0.8-0.6-1.2l0.9-1.1l-1.3-1.1l-0.9,1.1
				c-0.4-0.2-0.8-0.3-1.2-0.4l-0.1-1.4l-1.8,0.1l0.1,1.4c-0.4,0.1-0.8,0.3-1.2,0.6L83.3,30l-1.1,1.3l1.1,0.9
				c-0.2,0.4-0.3,0.8-0.4,1.2l-1.4,0.1l0.1,1.8l1.4-0.1c0.1,0.4,0.3,0.8,0.6,1.2l-0.9,1.1l1.3,1.1l0.9-1.1c0.4,0.2,0.8,0.3,1.2,0.4
				l0.1,1.4l1.8-0.1l-0.1-1.4c0.4-0.1,0.8-0.3,1.2-0.6l1.1,0.9l1.1-1.3l-1.1-0.9c0.2-0.4,0.3-0.8,0.4-1.2L92.1,34.5z M86.9,36.3
				c-1.2,0.1-2.3-0.8-2.4-2c-0.1-1.2,0.8-2.3,2-2.4c1.2-0.1,2.3,0.8,2.4,2C89.1,35.1,88.1,36.2,86.9,36.3z"/>
			<path id="XMLID_196_" class="st3" d="M75.4,17.7l0.1-0.8L75,16.8c0-0.2,0-0.4-0.1-0.6l0.5-0.4l-0.4-0.7l-0.5,0.4
				c-0.1-0.1-0.3-0.2-0.5-0.3l0.1-0.6l-0.8-0.1l-0.1,0.6c-0.2,0-0.4,0-0.6,0.1l-0.4-0.5l-0.7,0.4l0.4,0.5c-0.1,0.1-0.2,0.3-0.3,0.5
				L71,16l-0.1,0.8l0.6,0.1c0,0.2,0,0.4,0.1,0.6L71,17.8l0.4,0.7l0.5-0.4c0.1,0.1,0.3,0.2,0.5,0.3l-0.1,0.6l0.8,0.1l0.1-0.6
				c0.2,0,0.4,0,0.6-0.1l0.4,0.5l0.7-0.4L74.5,18c0.1-0.1,0.2-0.3,0.3-0.5L75.4,17.7z M73,17.8c-0.5-0.1-0.9-0.6-0.8-1.2
				c0.1-0.5,0.6-0.9,1.2-0.8c0.5,0.1,0.9,0.6,0.8,1.2C74.1,17.6,73.5,17.9,73,17.8z"/>
		</g>
	</g>
	<path id="XMLID_189_" class="st4" d="M73.5,24.2v-2.5c0-1.1,0.9-2,2-2h10.2c1.1,0,2,0.9,2,2v2.5c0,1.1-0.9,2-2,2H75.5
		C74.4,26.2,73.5,25.3,73.5,24.2z"/>
	<ellipse id="XMLID_212_" class="st5" cx="62" cy="16" rx="6" ry="6"/>
	<ellipse id="XMLID_208_" class="st4" cx="62.4" cy="16.4" rx="6" ry="6"/>
	<path id="XMLID_133_" class="st6" d="M74.7,58.3c0.6-3.4,1.5-6.8,3-10c1.5-3.2,3.5-6.3,6.3-8.7c1-0.9,2.5-1.8,3.8-1.4
		c1.4,0.4,1.9,1.9,1.8,3.2c-0.2,2.3-1.7,4.3-3.3,6.1C82.9,51.3,78.9,54.7,74.7,58.3z"/>
	<g id="XMLID_125_">
		<g>
			<path id="XMLID_204_" class="st7" d="M88,39.5c-5,5.7-9.4,11.9-13.1,18.4"/>
			<g id="XMLID_193_">
				<path id="XMLID_203_" class="st7" d="M85.9,38.7c0.3,0.8,0.5,1.6,0.6,2.5c0.9-0.1,1.9-0.1,2.8,0.2"/>
				<path id="XMLID_202_" class="st7" d="M81.8,42.3c0.7,0.9,1.2,1.9,1.3,3c1.4-0.3,2.9-0.2,4.2,0.2"/>
				<path id="XMLID_195_" class="st7" d="M78.6,47.5c0.6,0.8,0.9,1.8,0.9,2.8c1.3-0.3,2.7-0.3,4-0.3"/>
				<path id="XMLID_194_" class="st7" d="M76.6,52.3c0.3,0.5,0.5,1,0.6,1.5c0.7-0.3,1.4-0.5,2.2-0.6"/>
			</g>
		</g>
	</g>
	<path id="XMLID_123_" class="st2" d="M73.7,59.1c3.2-3,6.4-6,10.5-8.1c1.1-0.5,2.2-1,3.4-1s2.5,0.5,2.9,1.4c0.4,0.9-0.2,2-1.1,2.6
		c-0.9,0.7-2.1,1-3.2,1.4C82.1,56.6,78,57.8,73.7,59.1z"/>
	<g id="XMLID_8_">
		<path id="XMLID_122_" class="st8" d="M89.6,51.7c-5.6,1.3-10.9,3.8-15.3,7"/>
		<path id="XMLID_121_" class="st8" d="M87.5,50.5c0,0.6-0.1,1.2-0.3,1.7c0.6,0.3,1.1,0.8,1.3,1.4"/>
		<path id="XMLID_120_" class="st8" d="M84.2,51.5c-0.1,0.7-0.2,1.3-0.5,2c0.6,0.4,1.1,0.9,1.4,1.6"/>
		<path id="XMLID_119_" class="st8" d="M80.4,53.5c0.1,0.5,0.1,1,0,1.6c0.7,0.1,1.3,0.5,1.6,1"/>
		<path id="XMLID_118_" class="st8" d="M77.4,55.9c0,0.2,0,0.6-0.1,0.9c0.6,0,1.1,0.3,1.5,0.6"/>
	</g>
	<path id="XMLID_117_" class="st9" d="M74.2,59.1c2.8-7.2,5.4-14.6,7.7-22c0.5-1.7,1-3.7,0.3-5.3c-0.8-1.6-2.7-1.8-4-0.9
		c-1.3,0.9-2.1,2.7-2.7,4.5C72.8,43.3,73.8,52.1,74.2,59.1z"/>
	<g id="XMLID_10_">
		<path id="XMLID_116_" class="st7" d="M80.4,31.5c-3.4,6.4-5,15.8-6,27.4"/>
		<g id="XMLID_11_">
			<path id="XMLID_115_" class="st7" d="M75.8,36.5c0.7,0.7,1.3,1.6,1.7,2.5c1.1-0.7,2.3-1.2,3.6-1.3"/>
			<path id="XMLID_114_" class="st7" d="M74.2,42.5c0.8,0.6,1.4,1.4,2,2.3c0.9-0.9,2-1.5,3.2-1.9"/>
			<path id="XMLID_113_" class="st7" d="M74.2,48.4c0.4,0.3,0.8,0.8,1.1,1.2c0.7-0.6,1.4-1.1,2.1-1.4"/>
			<path id="XMLID_112_" class="st7" d="M77.6,32.2c0.7,0.6,1.1,1.6,1.3,2.6c0.9-0.6,2-0.8,3.1-0.5"/>
		</g>
	</g>
	<g id="XMLID_13_">
		<g>
			<g id="XMLID_476_">
				<path id="XMLID_497_" class="st10" d="M55.5,33c3.1,6.3,5.1,13.2,6.1,20.1"/>
				<g id="XMLID_477_">
					<path id="XMLID_496_" class="st10" d="M55.6,33.3c-1.4-0.3-2.5-1.3-2.9-2.6c-0.1-0.4-0.2-0.9,0.2-1.1c0.4-0.2,0.8-0.1,1.2,0.2
						C55.2,30.6,55.9,32,55.6,33.3z"/>
					<path id="XMLID_495_" class="st10" d="M56.2,34.3c-0.3-1.2-0.3-2.6,0-3.8c0-0.2,0.1-0.4,0.2-0.5c0.1-0.1,0.3-0.3,0.5-0.3
						s0.4,0.1,0.5,0.3c0.1,0.1,0.2,0.3,0.2,0.5c0.1,0.7,0,1.4-0.3,2C57,33.2,56.7,33.8,56.2,34.3z"/>
					<path id="XMLID_494_" class="st10" d="M57.1,36.3c-0.1-1.2,0.2-2.4,0.7-3.5c0.2-0.4,0.5-0.9,0.9-1.2c0.2-0.2,0.5-0.3,0.7-0.2
						c0.2,0.1,0.3,0.3,0.3,0.5c0,0.2-0.1,0.4-0.1,0.6C59,34,58.1,35.3,57.1,36.3z"/>
					<path id="XMLID_493_" class="st10" d="M57.9,38.1c-0.1-1.4,0.7-2.9,1.9-3.6c0.3-0.1,0.6-0.3,0.9-0.1c0.2,0.1,0.3,0.4,0.2,0.7
						c0,0.2-0.2,0.5-0.3,0.7C59.9,36.8,59,37.6,57.9,38.1z"/>
					<path id="XMLID_492_" class="st10" d="M58.6,40.3c0.1-1.5,1.1-3,2.4-3.7c0.2-0.1,0.5-0.2,0.7-0.1c0.2,0.1,0.2,0.4,0.2,0.6
						c-0.1,0.5-0.4,1-0.8,1.4C60.4,39.4,59.6,40.1,58.6,40.3z"/>
					<path id="XMLID_491_" class="st10" d="M59.3,42.2c0.4-1.5,1.5-2.7,2.9-3.3c0.2-0.1,0.5-0.2,0.7-0.1c0.2,0.1,0.3,0.4,0.3,0.6
						s-0.1,0.5-0.2,0.7c-0.4,0.6-1,1.1-1.7,1.5C60.6,42,59.9,42.2,59.3,42.2z"/>
					<path id="XMLID_490_" class="st10" d="M56.3,35c-0.7-1.1-1.9-1.8-3.2-1.9c-0.2,0-0.4,0-0.5,0.1c-0.3,0.2-0.4,0.6-0.2,0.9
						c0.2,0.4,0.6,0.6,1.1,0.7C54.2,34.9,55,35,56.3,35z"/>
					<path id="XMLID_489_" class="st10" d="M57.4,37c-0.6-1.1-2-1.7-3.2-1.6c-0.3,0-0.6,0.1-0.8,0.3c-0.2,0.2-0.3,0.6-0.2,0.8
						c0.2,0.3,0.6,0.4,0.9,0.4C55,37.1,56.1,37.1,57.4,37z"/>
					<path id="XMLID_488_" class="st10" d="M58.2,39.2c-0.9-1-2.3-1.5-3.6-1.3c-0.2,0-0.4,0.1-0.6,0.2c-0.2,0.1-0.3,0.4-0.3,0.6
						c0,0.2,0.2,0.3,0.4,0.4c0.2,0.1,0.4,0.1,0.6,0.1C55.8,39.2,56.9,39.3,58.2,39.2z"/>
					<path id="XMLID_487_" class="st10" d="M59,41.6c-0.5-0.6-1-1.2-1.8-1.5c-0.7-0.3-1.6-0.4-2.3,0c-0.2,0.1-0.4,0.2-0.5,0.5
						c0,0.2,0.1,0.4,0.3,0.5c0.2,0.1,0.4,0.1,0.6,0.2C56.4,41.3,57.3,41.4,59,41.6z"/>
					<path id="XMLID_486_" class="st10" d="M59.6,43.5c-0.8-0.9-2-1.5-3.2-1.5c-0.3,0-0.7,0-0.9,0.2c-0.3,0.2-0.4,0.6-0.2,0.9
						s0.5,0.3,0.9,0.4C56.9,43.5,57.7,43.6,59.6,43.5z"/>
					<path id="XMLID_485_" class="st10" d="M60,45.1c-0.9-0.8-2.1-0.9-3.3-0.7c-0.3,0-0.6,0.1-0.8,0.3c-0.2,0.2-0.3,0.6,0,0.8
						c0.2,0.1,0.4,0.1,0.6,0.1C57.5,45.5,58.5,45.4,60,45.1z"/>
					<path id="XMLID_484_" class="st10" d="M60.5,47c-0.4-0.5-1-0.7-1.7-0.8c-0.6-0.1-1.3,0.1-1.9,0.3c-0.2,0.1-0.5,0.2-0.6,0.3
						c-0.2,0.2-0.3,0.4-0.2,0.7c0.1,0.3,0.6,0.4,0.9,0.3C58.1,47.7,59.1,47.4,60.5,47z"/>
					<path id="XMLID_483_" class="st10" d="M60.9,49c-1.2-0.6-2.6-0.9-3.8-0.5c-0.3,0.1-0.6,0.4-0.6,0.7c0,0.2,0.2,0.4,0.4,0.5
						c0.2,0.1,0.4,0.1,0.6,0.1C58.5,49.8,59.5,49.5,60.9,49z"/>
					<path id="XMLID_482_" class="st10" d="M61.2,50.8c-1-0.5-2.1-0.6-3.1-0.3c-0.3,0.1-0.6,0.2-0.8,0.4c-0.2,0.2-0.3,0.6-0.1,0.8
						C57.4,52,57.7,52,58,52C58.9,52,59.8,51.8,61.2,50.8z"/>
					<path id="XMLID_481_" class="st10" d="M59.9,44.3c0.3-1.2,1.1-2.2,2.3-2.6c0.3-0.1,0.6-0.2,0.9-0.1c0.3,0.1,0.6,0.3,0.6,0.6
						c0,0.2-0.1,0.5-0.2,0.7s-0.4,0.3-0.6,0.4C62.1,43.7,61.2,44,59.9,44.3z"/>
					<path id="XMLID_480_" class="st10" d="M60.4,46.5c0.4-1.4,1.6-2.6,3-2.9c0.2,0,0.4-0.1,0.5,0c0.2,0.2,0.2,0.5,0.1,0.7
						c-0.3,0.6-0.8,1-1.4,1.3C62,45.9,61.4,46.1,60.4,46.5z"/>
					<path id="XMLID_479_" class="st10" d="M60.7,48.1c0.2-0.6,0.7-1,1.2-1.4c0.5-0.3,1.1-0.5,1.7-0.6c0.2,0,0.5,0,0.7,0
						c0.2,0.1,0.4,0.3,0.4,0.5c0,0.2-0.1,0.4-0.2,0.5c-0.1,0.1-0.3,0.2-0.5,0.3C63.1,47.8,62.1,47.9,60.7,48.1z"/>
					<path id="XMLID_478_" class="st10" d="M61.2,50.1c0.8-1.2,2-2.2,3.4-2.2c0.4,0,0.8,0.1,0.9,0.4c0.1,0.2,0,0.5-0.2,0.6
						s-0.4,0.3-0.6,0.3C63.5,49.6,62.1,49.6,61.2,50.1z"/>
				</g>
			</g>
			<g id="XMLID_460_">
				<path id="XMLID_475_" class="st10" d="M27.9,53.5c8.6-0.6,17.3,0.8,25.2,4.3"/>
				<g id="XMLID_461_">
					<path id="XMLID_474_" class="st10" d="M29.3,53.3c-1.1-0.8-2.7-0.7-3.7,0.1c-0.1,0.1-0.3,0.2-0.4,0.4c-0.1,0.2-0.1,0.4,0,0.5
						c0.1,0.2,0.5,0.3,0.7,0.2C27.2,54.6,28.4,54.1,29.3,53.3z"/>
					<path id="XMLID_473_" class="st10" d="M31.5,53.3c-0.9,0.2-1.8,0.8-2.3,1.6c-0.1,0.2-0.2,0.4-0.2,0.6c0,0.2,0,0.4,0.2,0.6
						c0.2,0.1,0.4,0.2,0.6,0.1c0.2-0.1,0.4-0.2,0.5-0.3C31.1,55.1,31.5,53.8,31.5,53.3z"/>
					<path id="XMLID_472_" class="st10" d="M34.7,53.5c-1.4,0.3-2.6,1.5-3,2.9c-0.1,0.3-0.1,0.7,0.1,0.8c0.3,0.2,0.6,0,0.9-0.3
						C33.7,56,34.4,54.8,34.7,53.5z"/>
					<path id="XMLID_471_" class="st10" d="M37.5,53.6c-1.3,0.5-2.3,1.6-3.1,2.8c-0.1,0.2-0.3,0.4-0.3,0.7c0,0.3,0.1,0.5,0.3,0.7
						c0.2,0.1,0.4,0.1,0.6,0c0.2-0.1,0.3-0.3,0.5-0.5C36.2,56.2,36.8,55.1,37.5,53.6z"/>
					<path id="XMLID_470_" class="st10" d="M39.4,53.9c-1.2,0.4-2.1,1.5-2.3,2.8c0,0.2,0,0.4,0,0.6c0.1,0.2,0.2,0.4,0.4,0.4
						c0.2,0.1,0.5,0,0.7-0.2c0.2-0.2,0.2-0.4,0.3-0.7C38.8,55.8,39.2,54.8,39.4,53.9z"/>
					<path id="XMLID_469_" class="st10" d="M41.1,54.1c-0.4,0.5-0.8,1.1-1.1,1.7c-0.3,0.6-0.4,1.3-0.2,2c0.1,0.2,0.2,0.4,0.4,0.4
						c0.2,0,0.3-0.1,0.4-0.2c0.4-0.5,0.7-1,0.8-1.7C41.5,55.6,41.4,55,41.1,54.1z"/>
					<path id="XMLID_468_" class="st10" d="M44.1,54.7c-0.5,0.2-0.9,0.6-1.2,1.1c-0.3,0.5-0.5,1-0.6,1.5c-0.1,0.2-0.1,0.4-0.1,0.6
						c0,0.2,0.1,0.4,0.3,0.5c0.2,0.1,0.5,0,0.7-0.2c0.2-0.2,0.3-0.4,0.4-0.7C43.8,56.7,43.9,55.8,44.1,54.7z"/>
					<path id="XMLID_467_" class="st10" d="M30.4,53.2c-0.9-0.3-1.7-1-2.2-1.9c-0.1-0.1-0.1-0.2-0.1-0.4c0-0.2,0.2-0.4,0.4-0.4
						c0.4-0.1,0.8,0.1,1.1,0.4c0.3,0.3,0.4,0.7,0.5,1.1C30.4,52.4,30.5,52.8,30.4,53.2z"/>
					<path id="XMLID_466_" class="st10" d="M33.2,53.4c-0.8-0.4-1.4-1.1-1.8-1.9c-0.1-0.2-0.2-0.4-0.2-0.6c0-0.2,0.1-0.4,0.2-0.5
						c0.2-0.1,0.4-0.1,0.6-0.1c0.2,0.1,0.4,0.2,0.5,0.4C33.1,51.4,33.5,52.2,33.2,53.4z"/>
					<path id="XMLID_465_" class="st10" d="M36.1,53.5c-1-0.6-1.7-1.8-1.6-3c0-0.2,0-0.3,0.2-0.4c0.1-0.1,0.2,0,0.3,0.1
						c0.1,0.1,0.2,0.2,0.2,0.3C35.7,51.2,36.1,52.1,36.1,53.5z"/>
					<path id="XMLID_464_" class="st10" d="M38.7,53.7c-0.8-0.5-1.4-1.4-1.4-2.4c0-0.3,0.1-0.7,0.4-0.8c0.2-0.1,0.5-0.1,0.6,0.1
						c0.2,0.1,0.3,0.3,0.4,0.5C39.2,51.8,39.4,52.8,38.7,53.7z"/>
					<path id="XMLID_463_" class="st10" d="M40.8,54.2c-0.4-0.2-0.7-0.7-0.8-1.1s-0.1-0.9-0.1-1.4c0-0.3,0-0.6,0.2-0.8
						c0.1-0.2,0.4-0.4,0.7-0.4c0.3,0.1,0.4,0.4,0.5,0.7C41.7,52.1,41.6,53.2,40.8,54.2z"/>
					<path id="XMLID_462_" class="st10" d="M43.2,54.5c-0.6-1-0.7-2.3-0.1-3.3c0.1-0.2,0.3-0.4,0.5-0.4c0.2,0,0.3,0.2,0.4,0.4
						C44.5,52.4,44.3,53.7,43.2,54.5z"/>
				</g>
			</g>
		</g>
	</g>
	<path id="XMLID_77_" class="st11" d="M64.1,42.7l-0.8-2.6c0,0-2,0.9-2.7,2.2c-1.5,3.1-2.4,9-3,9.8C57.1,53,49.8,54,49.8,54l0.7,3.8
		c0,0,8.9-0.6,10.1-1.7c1.6-1.4,3.6-7.6,3.6-7.6L64.1,42.7z"/>
	<path id="XMLID_76_" class="st12" d="M69,27.2c0.3-1.1,1.4-1.8,2.5-1.7s2,0.9,2.5,1.9c0.4,1,0.4,2.2,0,3.2
		c-0.2,0.7-0.6,1.4-0.3,2.1c0.2,0.5,0.7,0.8,1.2,1c0.5,0.2,1,0.4,1.4,0.8c0.4,0.4,0.6,1,0.3,1.5c-0.4,0.7-1.6,0.5-1.9,1.3
		c-0.1,0.4,0.1,0.8,0,1.2c0,0.5-0.4,0.9-0.9,1.2c-0.5,0.2-1,0.3-1.5,0.3c-0.9,0-1.8-0.1-2.6-0.5c-0.8-0.4-1.3-1.3-1.2-2.2
		c0.2-0.7,0.8-1.4,0.6-2.1c-0.2-0.5-0.7-0.8-1.1-1.1c-0.8-0.8-0.9-2.1-0.6-3.1C67.8,29.8,68.6,28.9,69,27.2z"/>
	<g id="XMLID_23_">
		<path id="XMLID_75_" class="st13" d="M70.1,38.2c-1.3,2-3.5,4.2-4.3,4.1c-0.7-0.1-1.3-1-1.3-2.7c0.1,0,0.2-0.1,0.3-0.2
			c0.2-0.2,0.4-0.4,0.5-0.6c0-0.1,0-0.1,0.1-0.2c0.1-0.5,0-1-0.3-1.3c0,0,0,0,0,0c1.1-1,2.1-1.7,3.2-2.4c0,0.6,0.2,1.2,0.4,1.8
			c0.1,0.1,0.1,0.2,0.2,0.3C69,37.6,69.5,38,70.1,38.2z"/>
		<path id="XMLID_74_" class="st14" d="M68.5,36.7c-0.8,1.1-2.2,2.8-3.8,2.8c0.2-0.2,0.4-0.4,0.5-0.6c0-0.1,0-0.1,0.1-0.2
			c0.1-0.5,0-1-0.3-1.3c0,0,0,0,0,0c1.1-1,2.1-1.7,3.2-2.4C68.1,35.6,68.3,36.2,68.5,36.7z"/>
	</g>
	<path id="XMLID_73_" class="st15" d="M69.6,37.9c0,0-1.8,3.9-4,4c-1.2,0.1-1-2.6-1-2.6s-2.1,1-2.7,1.7c-0.7,0.9-1.5,6-1.5,7.4
		c0.1,2.4,1.4,4,1.4,5.4s-1,4.5-1,4.5l13.1,0c0,0-0.7-2.8-0.8-5.8c-0.1-3,1.4-9.7,0.8-11.6C73.7,39.5,69.6,37.9,69.6,37.9z"/>
	<g id="XMLID_25_">
		<path id="XMLID_72_" class="st16" d="M65.6,41.9c0,0,2.8-1.1,3.9-4.1c0,0,1.6,0.4,1.7,0.7c0.2,0.4-0.6,3.5-1.5,4
			C68.9,42.9,65.6,41.9,65.6,41.9z"/>
		<path id="XMLID_71_" class="st16" d="M65.6,41.9c0,0-0.9-1.3-0.6-2.9c0,0-0.8,0.3-1.3,0.7c-0.7,0.6-1.8,2.9-1.5,3.2
			C62.5,43,65.6,41.9,65.6,41.9z"/>
	</g>
	<g id="XMLID_26_">
		<circle id="XMLID_70_" class="st16" cx="65.4" cy="43.2" r="0.4"/>
		<circle id="XMLID_69_" class="st16" cx="65.1" cy="45.7" r="0.4"/>
	</g>
	<g id="XMLID_27_">
		<g id="XMLID_28_">
			<g id="XMLID_29_">
				
					<ellipse id="XMLID_68_" transform="matrix(0.985 -0.1725 0.1725 0.985 -4.855 11.0002)" class="st17" cx="60.9" cy="33.4" rx="1.7" ry="2.4"/>
			</g>
			<g id="XMLID_30_">
				<path id="XMLID_67_" class="st13" d="M70.3,32.5c0.4-3.3-1.5-6.2-4.2-6.6c-2.7-0.4-5.7,2-5.7,5.3c0,4.5,1.8,7.3,4.4,6.8
					C67.4,37.5,69.9,35.8,70.3,32.5z"/>
				<path id="XMLID_66_" class="st14" d="M69.8,32.1c-0.9-0.1-1.7-0.7-2.1-1.5c0.1,0.5-0.1,1.1-0.5,1.4c-0.2,0.1-0.4,0.2-0.6,0.1
					c-0.1-0.1-0.2-0.2-0.3-0.3c-0.2-0.5-0.3-1-0.2-1.6c-0.4,0.9-1.3,1.6-2.2,1.8c-0.3,0.1-0.6,0.1-0.8-0.1c-0.1-0.2-0.2-0.4-0.1-0.6
					c0.1-0.2,0.2-0.4,0.4-0.6c-0.9,0.6-2.1,0.9-3.2,0.8c0.4-1.5,1.3-2.9,2.6-3.7c1.3-0.8,3.1-1,4.5-0.3c1.4,0.7,2.4,2.2,2.2,3.8"/>
			</g>
			<g id="XMLID_31_">
				<path id="XMLID_65_" class="st18" d="M70,34c-0.1-0.5-0.3-1.2-0.5-1.8c-0.8-0.6-1.5-1.5-1.9-2.5c0,0,0,0.1,0,0.1
					c0,0.8-0.6,2.2-0.8,2.1c-0.4-0.2-0.3-2.9-0.5-4.3c0.1,0.9,0,1.8-0.4,2.6c-0.4,0.8-1.2,1.4-2.1,1.6c-0.1,0-0.3,0-0.3-0.1
					c-0.1-0.1,0-0.3,0-0.4c0.4-1,0.9-2.1,1.3-3.1c-0.3,0.8-0.7,1.6-1.4,2.1c-0.7,0.6-1.8,0.8-2.9,0.8c-0.1,0.7-0.1,1.3,0,1.8
					c-0.3-0.5-0.5-1.1-0.6-1.7c-0.2-1.5,0.2-3,1.1-4.2c1.2-1.6,3.5-2.5,5.5-2c0.4,0,0.9,0.1,1.3,0.2c1.6,0.5,2.9,1.7,3.5,3.2
					C71.9,30.3,71.4,32.6,70,34z"/>
				<path id="XMLID_64_" class="st19" d="M67.7,25.2c-1.7-0.1-3.5,0.2-4.9,1.2c-1.6,1.1-2.8,2.9-2.9,4.9c-0.2-1.5,0.2-3,1.1-4.2
					c1.2-1.6,3.5-2.5,5.5-2C66.9,25,67.3,25.1,67.7,25.2z"/>
			</g>
			<g id="XMLID_32_">
				<path id="XMLID_63_" class="st16" d="M69.3,31.9c0,0,0.3-3.5-1.7-5.1c-2.5-2-5.8-0.6-5.8-0.6s-0.2-0.5,1.8-1.1
					c1-0.3,3.4-0.6,5.1,0.9c2,1.8,1.9,5.1,1.9,5.1L69.3,31.9z"/>
				<g id="XMLID_33_">
					<path id="XMLID_62_" class="st17" d="M68.4,33.1c0.2-1.3,1.1-2.3,2-2.2c0.9,0.1,1.5,1.3,1.4,2.6s-1.1,2.3-2,2.2
						C68.8,35.6,68.2,34.4,68.4,33.1z"/>
					<path id="XMLID_61_" class="st5" d="M69.6,33.2c0.2-1.2,0.8-2.1,1.4-2c0.6,0.1,1,1.1,0.8,2.3c-0.2,1.2-0.8,2.1-1.4,2
						C69.8,35.4,69.4,34.4,69.6,33.2z"/>
				</g>
			</g>
			<g id="XMLID_34_">
				<path id="XMLID_60_" class="st20" d="M66.4,32.4c-0.6-0.6-1.3-0.6-1.8-0.4"/>
				<path id="XMLID_59_" class="st20" d="M62.5,32.1c-0.6-0.4-1.3-0.3-1.6,0.1"/>
				<path id="XMLID_58_" class="st21" d="M63,33.6c0,0.4,0,0.9,0.1,1.3"/>
				<ellipse id="XMLID_57_" class="st22" cx="65.2" cy="33.6" rx="0.3" ry="0.4"/>
				<ellipse id="XMLID_56_" class="st22" cx="61.7" cy="33.6" rx="0.3" ry="0.4"/>
				<g id="XMLID_35_">
					<path id="XMLID_55_" class="st23" d="M65,36.5c-0.5,0.1-0.8,0-1-0.2c-0.3-0.3-0.4-0.7-0.4-0.7l0.1,0l1.9-0.6c0,0,0,0.1,0.1,0.3
						c0,0.1,0,0.1,0,0.2C65.7,35.9,65.7,36.3,65,36.5z"/>
					<path id="XMLID_54_" class="st24" d="M65.6,35.3c-0.5,0.2-1.6,0.5-1.7,0.5c-0.1,0-0.2-0.1-0.3-0.2l1.9-0.6
						C65.5,35,65.6,35.1,65.6,35.3z"/>
					<path id="XMLID_53_" class="st25" d="M65,36.5c-0.5,0.1-0.8,0-1-0.2c0.6-0.6,1.3-0.8,1.7-0.8C65.7,35.9,65.7,36.3,65,36.5z"/>
				</g>
			</g>
		</g>
		<g id="XMLID_36_">
			<path id="XMLID_52_" class="st26" d="M63.4,38.4c0,0-0.9,0-1.7-0.7c-0.8-0.7-0.9-1.5-0.9-1.9"/>
			<ellipse id="XMLID_51_" class="st22" cx="63.7" cy="38.4" rx="0.8" ry="0.5"/>
		</g>
	</g>
	<g id="XMLID_39_" class="st27">
		<g id="XMLID_40_">
			<path id="XMLID_48_" class="st28" d="M50.1,57.7c-0.9,0.1-2,0.2-3.1,0.2c-1.1,0-2.2,0.1-3.4,0.1c0.3-0.9,0.9-1.8,1.7-2.3
				c0.3-0.2,0.5-0.3,0.8-0.4c0.7-0.2,1.4-0.2,2,0.1C49.1,55.7,49.9,56.7,50.1,57.7z"/>
			<path id="XMLID_47_" class="st29" d="M47,57.9c-1.1,0-2.2,0.1-3.4,0.1c0.3-0.9,0.9-1.8,1.7-2.3c0.3-0.2,0.5-0.3,0.8-0.4
				c0.4,0.3,0.6,0.7,0.7,1.2C47.1,56.9,47,57.4,47,57.9z"/>
		</g>
		<path id="XMLID_46_" class="st13" d="M50.7,56.8c-0.6,0.3-1,0.3-1.7,0.3c-0.2,0.3-1.5,1.4-1.8,1.1c-0.2-0.2,0.6-1.1,0.8-1.4
			c0.1-0.2,0.2-0.5,0.2-0.8c-0.3-0.4-0.9-0.7-1.3-0.6c-0.6,0.2-1.3,1-2.1,1.7c-0.1,0.1-0.2,0.2-0.3,0.2c-0.1,0-0.3,0-0.4-0.1
			c-0.1-0.2,0-0.5,0.1-0.7c0.7-1.1,1.6-2.1,2.6-2.9c1.3,0.2,2.1,0.5,3.3,1C50.4,55.3,50.7,56.2,50.7,56.8z"/>
	</g>
	<g id="XMLID_42_">
		<polygon id="XMLID_45_" class="st30" points="48.4,57.6 48.4,58.3 68.5,58.3 73,57.4 73,57 		"/>
		<polygon id="XMLID_44_" class="st31" points="55.7,57 73,57 68.5,57.6 48.4,57.6 		"/>
	</g>
	<path id="XMLID_134_" class="st16" d="M71.9,53.1c0,0-1.4,1.4,0,3.6c0,0,1.2-0.2,1.3-1.6C73.2,54.2,71.9,53.1,71.9,53.1z"/>
	<g id="XMLID_136_">
		<path id="XMLID_137_" class="st13" d="M72.7,55.3c0,0.1-0.6,0.2-1,0.2c-0.1,0-0.5,0-0.6,0c0.1,0.5-0.2,0.8-0.4,0.9
			c-0.3,0.1-0.7-0.1-0.9-0.3c-0.3,0.2-0.6,0.3-0.9,0.2c-0.3-0.2-0.5-0.6-0.6-1c-0.1,0.3-0.1,0.5-0.1,0.7c0.1,0.2,0.8,1.2,0.3,1.3
			c-0.2,0.1-1-0.8-1.1-1.1c-0.1-0.5-0.1-1,0.2-1.7c-0.4,0.5-0.6,0.8-0.7,1c-0.1,0.6,0,1.6-0.4,1.6c-0.5,0-0.6-1.5-0.4-2.1
			c0.1-0.5,1-1.9,1.5-2c0.5-0.1,2.9,0,3.4,0.1c0.2,0,0.5,0.1,0.7,0.1c0.6,0,1,0,1.1,0.1C72.9,53.4,72.8,55.1,72.7,55.3z"/>
		<path id="XMLID_138_" class="st14" d="M72.7,55.3c0,0.1-0.6,0.2-1,0.2c0.1-0.2,0.2-0.5,0.2-0.8c0.1-0.6,0-1.2-0.3-1.7
			c0.6,0.1,1,0,1.1,0.1C72.9,53.4,72.8,55.1,72.7,55.3z"/>
	</g>
	<g id="XMLID_139_">
		<path id="XMLID_140_" class="st32" d="M69.1,54.3c0,0.7,0.2,1.1,0.6,1.6"/>
		<g id="XMLID_141_">
			<path id="XMLID_142_" class="st32" d="M71,55.5c-0.1,0-0.2-0.1-0.3-0.2"/>
			<path id="XMLID_143_" class="st32" d="M70.7,55.1c0,0.2,0,0.4-0.1,0.6"/>
		</g>
	</g>
	<path id="XMLID_145_" class="st11" d="M75.4,41.9c-0.4-0.9-1.6-1.7-2.6-2.3c0,0-0.1,0-0.1,0.1c-0.6,0.4-1.1,0.9-1.6,1.5
		c0,0,0,0-0.1,0.1c0.3,2,0.7,4.5,0.8,5.5c0.3,2,2.5,5.8,2.4,6.1c0,0.4-2.4,0.2-2.4,0.2c1,1.3,0.7,2.8,0,3.7c0,0,6.2,0.4,7-0.6
		C79.5,55.1,76,43.2,75.4,41.9z"/>
	<g id="XMLID_146_">
		<path id="XMLID_147_" class="st32" d="M72.8,41c-1,3-0.8,6.4,0.4,9.3"/>
		<path id="XMLID_148_" class="st32" d="M70.7,46.2c0.4,1.4,1.1,2.6,2.3,3.5"/>
	</g>
	<path id="XMLID_149_" class="st32" d="M72,53c0.4,0.1,0.7,0.1,1.1,0.1"/>
	<path id="XMLID_150_" class="st32" d="M73.7,56.7c-0.7,0-1.1,0-1.8-0.1"/>
	<g id="XMLID_151_">
		<g id="XMLID_152_">
			<polygon id="XMLID_153_" class="st30" points="31.9,55.2 31.1,36.9 56.2,36.9 57,55.2 			"/>
			<polygon id="XMLID_154_" class="st31" points="56.1,55.2 55.3,36.9 56.2,36.9 57,55.2 			"/>
		</g>
		<g id="XMLID_155_">
			<g id="XMLID_156_">
				<polygon id="XMLID_157_" class="st28" points="39.1,58.8 41.5,49 46,49 43.7,58.8 				"/>
				<polygon id="XMLID_158_" class="st31" points="43.4,58.8 45.7,49 46,49 43.7,58.8 				"/>
			</g>
			<g id="XMLID_159_">
				<rect id="XMLID_160_" x="37" y="57.8" class="st28" width="9.3" height="1"/>
				<rect id="XMLID_161_" x="45.6" y="57.8" class="st31" width="0.6" height="1"/>
			</g>
		</g>
	</g>
	<path class="st16" d="M60.4,18.8c-0.9,0-1.6-0.7-1.6-1.6c0-0.5,0.3-1,0.7-1.3c-0.1-0.2-0.1-0.4-0.1-0.6c0-1.2,1-2.1,2.2-2.1
		c1.1,0,2.1,0.9,2.1,2c0.2-0.1,0.4-0.1,0.6-0.1c1,0,1.9,0.8,1.9,1.9c0,1-0.8,1.9-1.9,1.9"/>
	<path class="st2" d="M39.7,21.1c-0.9,0-1.7-0.7-1.7-1.7c0-0.6,0.4-1.2,0.9-1.5c0-0.1,0-0.1,0-0.2c0-1.8,1.5-3.3,3.3-3.3
		c1.7,0,3.1,1.2,3.3,2.9c0.1,0,0.2,0,0.3,0c0.7,0,1.3,0.4,1.7,1c0.3-0.2,0.6-0.3,1-0.3c0.9,0,1.6,0.7,1.6,1.6c0,0.9-0.7,1.6-1.6,1.6
		"/>
	<path class="st2" d="M35.3,10.1"/>
	<path class="st2" d="M38.3,10.1"/>
	<path class="st33" d="M80.3,24.6c-1.2,0-2.1-1-2.1-2.1c0-1.2,1-2.1,2.1-2.1c0.9,0,1.6,0.5,2,1.3c0.2-0.1,0.5-0.2,0.8-0.2
		c0.9,0,1.6,0.7,1.6,1.6c0,0.9-0.7,1.6-1.6,1.6"/>
	<g>
		<path class="st34" d="M105.4,59.2H4.8c-0.1,0-0.1-0.1-0.1-0.1v0c0-0.1,0.1-0.1,0.1-0.1h100.5c0.1,0,0.1,0.1,0.1,0.1v0
			C105.5,59.1,105.4,59.2,105.4,59.2z"/>
	</g>
</g>
</svg>
