<?xml version="1.0" encoding="utf-8"?>
<!-- Generator: Adobe Illustrator 22.1.0, SVG Export Plug-In . SVG Version: 6.00 Build 0)  -->
<svg version="1.1" id="图层_1" xmlns="http://www.w3.org/2000/svg" xmlns:xlink="http://www.w3.org/1999/xlink" x="0px" y="0px"
	 viewBox="0 0 110 60" style="enable-background:new 0 0 110 60;" xml:space="preserve">
<style type="text/css">
	.st0{fill:#E8F2FA;}
	.st1{opacity:0.3;}
	.st2{fill:#A9C2FF;}
	.st3{fill:#DCEAFF;}
	.st4{opacity:0.5;}
	.st5{fill:#BFDCFF;}
	.st6{opacity:0.2;}
	.st7{fill:#89B4FD;}
	.st8{fill:#FF912B;}
	.st9{fill:#9BD399;}
	.st10{fill:#E66A00;}
	.st11{fill:#FC7600;}
	.st12{fill:#F06C00;}
	.st13{fill:#5158BF;}
	.st14{fill:#E3EFFF;}
	.st15{fill:#FF7B35;}
	.st16{fill:#2A3967;}
	.st17{fill:#FFAE73;}
	.st18{fill:#6274EC;}
	.st19{fill:#26529F;}
	.st20{fill:#1E3865;}
	.st21{fill:#8EAFF1;}
	.st22{fill:#F99352;}
	.st23{fill:#062646;}
	.st24{fill:#0B3563;}
	.st25{fill:#0D458E;}
	.st26{fill:#FFA05E;}
	.st27{fill:#2D3554;}
</style>
<g>
	<path class="st0" d="M8.5,59.2c0,0-7.1-10.7,0.6-23.3s18.1-6.3,17.6-20.9C26.2,0.2,48.1-1.2,55.8,3.1c7.7,4.3,14.6,1.8,23.8,2.1
		c15,0.5,19.2,15.3,15,22.5c-5.9,10.2,18.5,11.4,4.4,31.5H8.5z"/>
</g>
<g class="st1">
	<path class="st2" d="M20.2,36.1c-0.7-2.6,3.4-4.1,3.4-4.1s4.8,2.4,5.6,2c0.8-0.3-3.7-2.8-3.7-2.8c1.3-1,6-1.4,6-1.4
		s2.4,4.6,3.1,4.1c0.7-0.5-2.3-4-2.3-4c1.6-0.4,3.9,0.5,3.9,0.5c3.1,1.7,0.8,5.6,0.8,5.6s0.9,1.6,2.9,2.8l0,0c0,0,0.4,0.2,1,0.6
		l-0.4,0.2c-0.1-0.1-0.2-0.2-0.3-0.2c0,0,0,0,0,0c0,0,0,0,0,0c-0.1,0-0.1-0.1-0.3-0.2c0,0,0,0,0,0c0,0,0,0,0,0
		c-0.2-0.2-0.4-0.3-0.5-0.4c0,0,0,0,0,0c-0.8-0.5-1.8-1.1-2.2-1.1c0,0,0-0.1,0-0.2c0,0.1,0,0.1,0,0.2c0.2,1.8-2.9,3.9-4.9,4.6
		c-2,0.7-1.5-0.3-1-1.7c0.5-1.4,2.6-2.4,3-3c0.4-0.7-0.7-0.5-1.8,0.3c-1.1,0.8-1,2.3-2.9,3.7c-1.8,1.3-5.4-1.5-5.4-1.5
		c1.6-0.4,3.5-2.5,3.4-3c-0.2-0.5-3.7,1.6-4.3,1.8C22.5,39.2,20.9,38.6,20.2,36.1z"/>
</g>
<g>
	<path class="st3" d="M89.2,54.9c2.6-2.5-1.2-7.1-1.2-7.1s-7.2-0.5-7.9-1.5c-0.7-0.9,6.2-0.7,6.2-0.7c-0.9-2.1-6-5.7-6-5.7
		s-6,3.7-6.4,2.7c-0.4-1.1,5.5-3,5.5-3c-1.6-1.6-4.8-2.1-4.8-2.1c-4.8-0.2-4.8,6-4.8,6s-2.1,1.2-5.3,1.3l0,0c0,0-0.6,0-1.6,0.1
		l0.3,0.5c0.2,0,0.3-0.1,0.5-0.1c0,0,0,0,0,0c0,0,0,0,0,0c0.1,0,0.2,0,0.4,0c0,0,0,0,0,0c0,0,0,0,0,0c0.4,0,0.7,0,0.9-0.1
		c0,0,0,0,0,0c1.2-0.1,2.9-0.1,3.4,0.2c0,0,0-0.1,0.2-0.2c-0.1,0.1-0.1,0.2-0.2,0.2C67,47.2,69.1,51.8,71,54c1.9,2.2,2,0.7,2.4-1.2
		c0.4-1.9-1.4-4.5-1.5-5.6c0-1.1,1.1-0.1,1.9,1.6c0.8,1.7-0.4,3.4,0.8,6.2c1.2,2.8,7.3,2,7.3,2c-1.6-1.5-2.4-5.3-1.8-5.8
		c0.6-0.5,3.2,4.4,3.8,5C84.4,56.9,86.7,57.4,89.2,54.9z"/>
</g>
<g>
	<g class="st4">
		<path class="st5" d="M34.9,28.5c0,0-3.3-3.4-6.9-4.2c-0.5-0.1-0.8,0.5-0.5,0.8c0,0,0,0,0,0C28.1,25.8,32.3,27,34.9,28.5z"/>
	</g>
	<g class="st4">
		<path class="st5" d="M36,29.4c0,0-5.4-3.2-10.3-2.8c-0.3,0-0.5,0.3-0.5,0.6c0,0.2,0.1,0.4,0.4,0.7C26.5,28.4,32.2,28.4,36,29.4z"
			/>
	</g>
</g>
<g class="st4">
	<g class="st4">
		<path class="st2" d="M74.4,36.9c0,0,0.8-4.9,3.4-7.7c0.3-0.4,1-0.1,0.9,0.4c0,0,0,0,0,0C78.6,30.5,75.7,34.1,74.4,36.9z"/>
	</g>
	<g class="st4">
		<path class="st2" d="M74,38.3c0,0,2.7-6,7.1-8.5c0.3-0.2,0.6-0.1,0.8,0.2c0.1,0.2,0.1,0.4,0,0.8C81.5,31.8,76.6,35.3,74,38.3z"/>
	</g>
</g>
<g class="st6">
	<path class="st7" d="M52,25.7l1.9-0.2c0.2,0,0.3,0.1,0.4,0.2c0.1,0.2,0.2,0.3,0.4,0.5c0.2,0.3,0.5,0.6,0.8,0.8
		c0.1,0.1,0.2,0.3,0.1,0.5l-0.7,1.9c-0.1,0.2,0,0.4,0.2,0.5l1.6,0.8c0.2,0.1,0.4,0,0.5-0.1l1-1.6c0.1-0.2,0.3-0.2,0.5-0.2
		c0.8,0.2,1.5,0.3,2.3,0.2c0.2,0,0.4,0.1,0.4,0.3l0.3,1.1c0.1,0.2,0.3,0.3,0.5,0.3l1.8-0.4c0,0,0.1,0,0.1,0c0.2-0.1,0.3-0.2,0.2-0.4
		l-0.2-1.4l0-0.3c0.3-0.2,0.6-0.4,0.9-0.6c0.4-0.3,0.7-0.6,1-0.9c0.1-0.1,0.3-0.2,0.5-0.1l1.5,0.6c0.2,0.1,0.4,0,0.5-0.2l0.6-1.3
		l0.2-0.4c0.1-0.2,0-0.4-0.2-0.6L67.8,24c-0.2-0.1-0.2-0.3-0.2-0.4c0.1-0.5,0.2-1,0.2-1.6c0,0,0-0.1,0-0.1c0,0,0,0,0,0
		c0-0.2,0.1-0.3,0.3-0.4l1.7-0.5c0,0,0,0,0.1,0c0.2-0.1,0.3-0.3,0.2-0.5l-0.4-1.8c0-0.2-0.2-0.4-0.5-0.3l-2,0.2
		c-0.2,0-0.3-0.1-0.4-0.2c-0.2-0.3-0.4-0.6-0.6-1c-0.1-0.2-0.3-0.3-0.4-0.5c-0.1-0.1-0.1-0.3-0.1-0.4l0.7-1.8c0.1-0.2,0-0.4-0.2-0.5
		l-1.6-0.8c-0.2-0.1-0.4,0-0.6,0.2l-0.8,1.2c-0.1,0.2-0.3,0.2-0.5,0.2c-0.7-0.3-1.5-0.4-2.2-0.4c-0.2,0-0.3-0.1-0.4-0.3l-0.5-1.6
		c-0.1-0.2-0.3-0.3-0.5-0.3l-1.8,0.3c-0.2,0-0.4,0.2-0.3,0.5l0,0.1l0.2,1.7c0,0.2-0.1,0.3-0.2,0.4l0,0c-0.4,0.2-0.7,0.4-1.1,0.7
		c-0.2,0.1-0.4,0.3-0.5,0.5c-0.1,0.1-0.3,0.1-0.4,0.1l-1.5-0.6c-0.2-0.1-0.4,0-0.5,0.2l-0.8,1.6c0,0,0,0.1,0,0.1
		c0,0.2,0.1,0.3,0.2,0.4l1,0.7c0.1,0.1,0.2,0.2,0.2,0.4c0,0,0,0.1,0,0.1c-0.3,0.9-0.4,1.9-0.4,2.9c0,0.2-0.1,0.3-0.2,0.4
		c0,0,0,0-0.1,0l-1.4,0.4c-0.2,0.1-0.3,0.3-0.3,0.5l0,0l0.3,1.7C51.5,25.6,51.7,25.8,52,25.7z M64.2,20.4c0.1,0.3,0.2,0.6,0.3,0.9
		c0.1,0.6,0,1.5-0.3,2.1c0,0.1-0.1,0.1-0.1,0.2c-1.9,3.5-6.8,2.8-7.6-1.2c-0.1-0.5,0-1.3,0.1-1.8c0-0.1,0.1-0.3,0.1-0.4
		c0.3-0.5,0.6-0.9,0.9-1.2C59.7,17,63.1,17.6,64.2,20.4z"/>
</g>
<g>
	<path class="st2" d="M76.1,22.6l1.2-0.1c0.1,0,0.2,0,0.2,0.1c0.1,0.1,0.1,0.2,0.2,0.3c0.1,0.2,0.3,0.4,0.5,0.5
		c0.1,0.1,0.1,0.2,0.1,0.3l-0.5,1.2c0,0.1,0,0.3,0.1,0.3l1,0.5c0.1,0.1,0.3,0,0.3-0.1l0.6-1c0.1-0.1,0.2-0.1,0.3-0.1
		c0.5,0.1,1,0.2,1.4,0.1c0.1,0,0.2,0.1,0.3,0.2l0.2,0.7c0,0.1,0.2,0.2,0.3,0.2l1.1-0.2c0,0,0,0,0.1,0c0.1,0,0.2-0.1,0.1-0.3
		l-0.1-0.9l0-0.2c0.2-0.1,0.4-0.2,0.5-0.4c0.2-0.2,0.4-0.4,0.6-0.6c0.1-0.1,0.2-0.1,0.3-0.1l0.9,0.4c0.1,0,0.3,0,0.3-0.1l0.4-0.8
		l0.1-0.2c0.1-0.1,0-0.3-0.1-0.3l-0.8-0.5c-0.1-0.1-0.1-0.2-0.1-0.3c0.1-0.3,0.1-0.6,0.1-1c0,0,0-0.1,0-0.1c0,0,0,0,0,0
		c0-0.1,0.1-0.2,0.2-0.2l1.1-0.3c0,0,0,0,0,0c0.1-0.1,0.2-0.2,0.1-0.3l-0.2-1.1c0-0.1-0.1-0.2-0.3-0.2l-1.2,0.1
		c-0.1,0-0.2,0-0.3-0.1c-0.1-0.2-0.2-0.4-0.4-0.6c-0.1-0.1-0.2-0.2-0.2-0.3c-0.1-0.1-0.1-0.2,0-0.3l0.4-1.1c0-0.1,0-0.3-0.1-0.3
		l-1-0.5c-0.1-0.1-0.3,0-0.3,0.1l-0.5,0.8c-0.1,0.1-0.2,0.1-0.3,0.1c-0.4-0.2-0.9-0.2-1.4-0.3c-0.1,0-0.2-0.1-0.2-0.2l-0.3-1
		c0-0.1-0.2-0.2-0.3-0.2l-1.1,0.2c-0.1,0-0.2,0.2-0.2,0.3l0,0.1l0.1,1c0,0.1,0,0.2-0.1,0.3l0,0c-0.2,0.1-0.5,0.3-0.7,0.4
		c-0.1,0.1-0.2,0.2-0.3,0.3c-0.1,0.1-0.2,0.1-0.3,0.1L77,16.5c-0.1-0.1-0.3,0-0.3,0.1l-0.5,1c0,0,0,0.1,0,0.1c0,0.1,0,0.2,0.1,0.2
		l0.6,0.4c0.1,0.1,0.1,0.1,0.1,0.2c0,0,0,0,0,0.1c-0.2,0.6-0.3,1.2-0.2,1.8c0,0.1,0,0.2-0.1,0.2c0,0,0,0,0,0L75.8,21
		c-0.1,0-0.2,0.2-0.2,0.3l0,0l0.2,1.1C75.8,22.5,75.9,22.6,76.1,22.6z M83.7,19.3c0.1,0.2,0.1,0.4,0.2,0.5c0.1,0.4,0,1-0.2,1.3
		c0,0,0,0.1-0.1,0.1c-1.2,2.1-4.2,1.7-4.7-0.7c-0.1-0.3,0-0.8,0.1-1.1c0-0.1,0.1-0.2,0.1-0.2c0.2-0.3,0.3-0.6,0.6-0.8
		C80.9,17.2,83,17.6,83.7,19.3z"/>
</g>
<g>
	<path class="st8" d="M69.2,15.4l0.8-0.3c0.1,0,0.1,0,0.2,0c0.1,0.1,0.1,0.1,0.2,0.2c0.1,0.1,0.3,0.2,0.4,0.3c0.1,0,0.1,0.1,0.1,0.2
		l-0.1,0.9c0,0.1,0,0.2,0.1,0.2l0.8,0.2c0.1,0,0.2,0,0.2-0.1l0.3-0.8c0-0.1,0.1-0.1,0.2-0.1c0.3,0,0.7,0,1-0.1c0.1,0,0.2,0,0.2,0.1
		l0.2,0.4c0,0.1,0.1,0.1,0.2,0.1l0.7-0.3c0,0,0,0,0,0c0.1,0,0.1-0.1,0.1-0.2l-0.2-0.6l0-0.1c0.1-0.1,0.2-0.2,0.3-0.3
		c0.1-0.2,0.3-0.3,0.4-0.5c0-0.1,0.1-0.1,0.2-0.1l0.7,0.1c0.1,0,0.2,0,0.2-0.1l0.2-0.6l0-0.2c0-0.1,0-0.2-0.1-0.2l-0.6-0.2
		c-0.1,0-0.1-0.1-0.1-0.2c0-0.2,0-0.5-0.1-0.7c0,0,0,0,0-0.1c0,0,0,0,0,0c0-0.1,0-0.1,0.1-0.2l0.7-0.4c0,0,0,0,0,0
		c0.1-0.1,0.1-0.1,0.1-0.2l-0.3-0.7c0-0.1-0.1-0.1-0.2-0.1l-0.8,0.3c-0.1,0-0.1,0-0.2-0.1c-0.1-0.1-0.2-0.2-0.4-0.4
		c-0.1-0.1-0.1-0.1-0.2-0.2c-0.1,0-0.1-0.1-0.1-0.2l0.1-0.8c0-0.1,0-0.2-0.1-0.2l-0.8-0.2c-0.1,0-0.2,0-0.2,0.1l-0.2,0.6
		c0,0.1-0.1,0.1-0.2,0.1c-0.3,0-0.7,0-1,0c-0.1,0-0.2,0-0.2-0.1l-0.4-0.6c0-0.1-0.2-0.1-0.2-0.1l-0.7,0.3c-0.1,0-0.1,0.1-0.1,0.2
		l0,0l0.2,0.7c0,0.1,0,0.2-0.1,0.2l0,0c-0.1,0.1-0.3,0.3-0.4,0.4c-0.1,0.1-0.1,0.2-0.2,0.2c0,0.1-0.1,0.1-0.2,0.1L68.9,11
		c-0.1,0-0.2,0-0.2,0.1l-0.2,0.8c0,0,0,0,0,0.1c0,0.1,0.1,0.1,0.1,0.2l0.5,0.2c0.1,0,0.1,0.1,0.1,0.1c0,0,0,0,0,0.1
		c-0.1,0.4,0,0.9,0.1,1.3c0,0.1,0,0.1-0.1,0.2c0,0,0,0,0,0l-0.6,0.3c-0.1,0-0.1,0.1-0.1,0.2l0,0l0.3,0.7
		C69,15.4,69.1,15.4,69.2,15.4z M74,11.9c0.1,0.1,0.1,0.2,0.2,0.4c0.1,0.2,0.1,0.7,0.1,0.9c0,0,0,0.1,0,0.1
		c-0.5,1.7-2.7,1.8-3.4,0.2c-0.1-0.2-0.1-0.5-0.1-0.8c0-0.1,0-0.1,0-0.2c0.1-0.2,0.2-0.4,0.3-0.6C71.7,10.9,73.2,10.8,74,11.9z"/>
</g>
<g>
	<path class="st9" d="M11.2,59.1h3.5c0.2-0.2-0.1-0.5-0.5-0.5c-0.1,0-0.3,0-0.5,0.1c0-0.6-0.3-3.5-1.4-3.4c-1.2,0.1,0,1.3,0.3,1.9
		c0.2,0.5,0.5,1.2,0.6,1.5c-0.1,0-0.2,0-0.3,0.1c-0.2-0.5-0.7-2.1-1.5-2c-0.9,0.1-0.5,0.7,0.1,1.1c0.4,0.3,1,0.7,1.2,0.9
		c-0.2,0-0.4,0.1-0.7,0.1C11.6,58.8,11.3,59,11.2,59.1z"/>
</g>
<g>
	<path class="st9" d="M96.7,59h-3.9c-0.2-0.2,0.1-0.6,0.5-0.6c0.2,0,0.4,0,0.6,0.1c0.1-0.7,0.4-4,1.5-3.8c1.3,0.1,0,1.4-0.4,2.2
		c-0.3,0.6-0.6,1.4-0.7,1.7c0.1,0,0.2,0,0.3,0.1c0.2-0.5,0.8-2.3,1.6-2.2c1,0.1,0.6,0.8-0.1,1.3c-0.5,0.3-1.1,0.8-1.4,1
		c0.2,0,0.5,0.1,0.8,0.1C96.2,58.7,96.6,58.9,96.7,59z"/>
</g>
<g>
	<g>
		<g>
			<path class="st10" d="M52.9,35L51,57.6c0,0-0.2,1.4,0.8,1.4c1.7,0,8.4,0,8.4,0S59,58.7,59,58.1c0-0.8,2.2-23.3,2.2-23.3L52.9,35z
				"/>
		</g>
		<g>
			<path class="st8" d="M60.8,58.6c-0.3,0-6.8,0-8.4,0c-0.7,0-0.8-0.6-0.8-1c0-0.2,0-0.3,0-0.3l0-0.6l0.1-1.5l0.1-1.3l0.1-1.7
				l0.1-1.4l1.4-16.1l8.3-0.2c0,0-0.9,9.4-1.6,16.3c-0.1,0.8-0.1,1.5-0.2,2.2c0,0.2,0,0.4-0.1,0.6c-0.1,0.7-0.1,1.2-0.2,1.8
				c0,0.3,0,0.5-0.1,0.8c-0.1,0.9-0.1,1.5-0.1,1.6c0,0.1,0,0.1,0,0.2C59.7,58.6,60.7,58.6,60.8,58.6z"/>
		</g>
		<g>
			<polygon class="st8" points="32.9,22.6 37.5,41.3 38.1,43.8 40.3,52.5 80.5,52.5 72.5,22.6 			"/>
		</g>
		<g>
			<polygon class="st10" points="32.9,22.6 32.2,22.8 39.5,53.2 40.3,52.5 			"/>
		</g>
		<g>
			<polygon class="st11" points="39.5,53.2 79.4,53.2 80.5,52.5 40.3,52.5 			"/>
		</g>
		<g>
			
				<rect x="53.5" y="58.6" transform="matrix(-1 -1.224647e-16 1.224647e-16 -1 115.6233 117.634)" class="st8" width="8.6" height="0.4"/>
		</g>
		<g>
			<polygon class="st12" points="59.9,53.2 59.9,53.5 51.8,55.1 51.9,53.8 51.9,53.2 			"/>
		</g>
		<g class="st4">
			<path class="st11" d="M60.8,58.6c-0.3,0-6.8,0-8.4,0c-0.7,0-0.8-0.6-0.8-1l8.1-1.5c-0.1,0.9-0.1,1.5-0.1,1.6c0,0.1,0,0.1,0,0.2
				C59.7,58.6,60.7,58.6,60.8,58.6z"/>
		</g>
		<g>
			<polygon class="st11" points="32.9,22.6 72.5,22.6 79,46.7 38.9,46.7 			"/>
		</g>
		<g>
			<polygon class="st13" points="77.1,45.6 40,45.6 38.6,40.3 38.1,38.3 37.9,37.4 36.5,32 36.5,31.7 35.8,28.9 35.4,27.6 
				35.2,26.5 34.5,23.9 71.1,23.9 71.8,26.5 72.1,27.6 72.5,28.9 74.8,37.3 74.8,37.3 75,38 75.1,38.4 76.7,44.2 			"/>
		</g>
		<g>
			<polygon class="st11" points="53.9,46.7 40.3,52.6 38.9,46.7 			"/>
		</g>
	</g>
	<g>
		<g>
			<g>
				<g>
					<path class="st14" d="M57.3,37.5c-3,0-5.9-2.5-6.4-5.5c-0.5-3,1.6-5.5,4.6-5.5c3,0,5.9,2.5,6.4,5.5S60.3,37.5,57.3,37.5z
						 M55.6,27.4c-2.5,0-4.2,2-3.8,4.6c0.4,2.5,2.8,4.6,5.3,4.6s4.2-2,3.8-4.6C60.5,29.5,58.1,27.4,55.6,27.4z"/>
				</g>
			</g>
			<g>
				<g>
					<path class="st8" d="M57.3,37.5c-3,0-5.9-2.5-6.4-5.5s1.6-5.5,4.6-5.5c1.7,0,3.3,0.7,4.6,2c1,1,1.6,2.2,1.8,3.5
						c0,0.3-0.1,0.5-0.4,0.5c-0.3,0-0.5-0.2-0.6-0.5c-0.2-1.1-0.7-2.1-1.5-2.9c-1-1.1-2.4-1.7-3.8-1.7c-2.5,0-4.2,2-3.8,4.5
						c0.4,2.5,2.8,4.5,5.3,4.5c0.3,0,0.5,0.2,0.6,0.5C57.7,37.3,57.5,37.5,57.3,37.5z"/>
				</g>
			</g>
		</g>
		<g>
			<g>
				<path class="st14" d="M67.7,41.7l0.1,0.5c0,0.3-0.1,0.5-0.4,0.5H48.9c-0.3,0-0.6-0.2-0.6-0.5l-0.1-0.5c0-0.3,0.1-0.5,0.4-0.5
					h18.4C67.4,41.2,67.6,41.4,67.7,41.7z"/>
			</g>
			<g>
				<g>
					<path class="st8" d="M61.7,41.2l0.3,1.6H48.9c-0.3,0-0.6-0.2-0.6-0.5l-0.1-0.5c0-0.3,0.1-0.5,0.4-0.5H61.7z"/>
				</g>
				<g>
					<polygon class="st15" points="59,41.2 57.8,42.8 55.1,42.8 56.3,41.2 					"/>
				</g>
				<g>
					<polygon class="st15" points="61.7,41.2 62,42.8 59.5,42.8 60.7,41.2 					"/>
				</g>
				<g>
					<polygon class="st15" points="54.7,41.2 53.5,42.8 50.8,42.8 52,41.2 					"/>
				</g>
				<g>
					<path class="st15" d="M50.3,41.2l-1.2,1.6h-0.2c-0.3,0-0.6-0.2-0.6-0.5l-0.1-0.5c0-0.3,0.1-0.5,0.4-0.5H50.3z"/>
				</g>
			</g>
		</g>
		<g>
			<path class="st14" d="M54.3,31.3h-1l-0.1-0.3h1.4l0,0.3L54.1,33h-0.4L54.3,31.3z"/>
			<path class="st14" d="M55.1,32c-0.1-0.6,0.2-1.1,0.7-1.1c0.5,0,1,0.5,1.1,1.1c0.1,0.6-0.2,1.1-0.7,1.1C55.6,33,55.2,32.6,55.1,32
				z M56.5,32c-0.1-0.4-0.3-0.7-0.6-0.7s-0.5,0.3-0.4,0.7c0.1,0.4,0.3,0.7,0.6,0.7C56.4,32.7,56.5,32.4,56.5,32z"/>
			<path class="st14" d="M57.1,31.4c0-0.3,0.1-0.5,0.4-0.5c0.3,0,0.5,0.2,0.6,0.5c0,0.3-0.1,0.5-0.4,0.5
				C57.3,32,57.1,31.7,57.1,31.4z M57.8,31.4c0-0.2-0.1-0.3-0.3-0.3c-0.1,0-0.2,0.1-0.2,0.3c0,0.2,0.1,0.3,0.3,0.3
				C57.7,31.7,57.8,31.6,57.8,31.4z M58.7,30.9H59l-1.2,2h-0.3L58.7,30.9z M58.5,32.5c0-0.3,0.1-0.5,0.4-0.5c0.3,0,0.5,0.2,0.6,0.5
				c0,0.3-0.1,0.5-0.4,0.5C58.8,33,58.5,32.8,58.5,32.5z M59.2,32.5c0-0.2-0.1-0.3-0.3-0.3c-0.1,0-0.2,0.1-0.2,0.3
				c0,0.2,0.1,0.3,0.3,0.3C59.1,32.8,59.2,32.7,59.2,32.5z"/>
		</g>
		<g>
			<path class="st14" d="M55.8,40h0.1l0.1,0.5h0.3l0,0.1h-0.4L55.8,40z"/>
			<path class="st14" d="M56.4,40.4c0-0.1,0.1-0.2,0.2-0.2c0.1,0,0.3,0.1,0.3,0.2c0,0.1-0.1,0.2-0.2,0.2
				C56.5,40.6,56.4,40.5,56.4,40.4z M56.8,40.4c0-0.1-0.1-0.2-0.2-0.2c-0.1,0-0.1,0.1-0.1,0.2c0,0.1,0.1,0.2,0.2,0.2
				C56.8,40.5,56.8,40.4,56.8,40.4z"/>
			<path class="st14" d="M57.3,40.6L57.3,40.6c0,0-0.1,0-0.2,0c-0.1,0-0.2-0.1-0.2-0.1c0-0.1,0.1-0.2,0.2-0.2c0.1,0,0.1,0,0.1,0l0,0
				c0-0.1-0.1-0.1-0.1-0.1c-0.1,0-0.1,0-0.1,0l0-0.1c0,0,0.1,0,0.2,0c0.1,0,0.2,0.1,0.2,0.2l0,0.3H57.3z M57.3,40.4c0,0-0.1,0-0.1,0
				c-0.1,0-0.1,0-0.1,0.1c0,0,0.1,0.1,0.1,0.1C57.3,40.5,57.3,40.5,57.3,40.4L57.3,40.4z"/>
			<path class="st14" d="M57.5,40.4c0-0.2,0.1-0.2,0.2-0.2c0.1,0,0.1,0,0.2,0.1l0-0.3h0.1l0.1,0.7h-0.1l0-0.1c0,0-0.1,0.1-0.1,0.1
				C57.7,40.6,57.5,40.5,57.5,40.4z M57.9,40.4c0-0.1-0.1-0.2-0.2-0.2c-0.1,0-0.1,0.1-0.1,0.2c0,0.1,0.1,0.2,0.2,0.2
				C57.9,40.5,57.9,40.5,57.9,40.4z"/>
			<path class="st14" d="M58.1,40h0.1l0,0.1h-0.1L58.1,40z M58.1,40.1h0.1l0.1,0.5h-0.1L58.1,40.1z"/>
			<path class="st14" d="M58.4,40.1h0.1l0,0.1c0,0,0.1-0.1,0.1-0.1c0.1,0,0.2,0.1,0.2,0.2l0.1,0.3h-0.1l0-0.3c0-0.1-0.1-0.1-0.1-0.1
				c-0.1,0-0.1,0-0.1,0.1l0,0.3h-0.1L58.4,40.1z"/>
			<path class="st14" d="M59,40.7L59,40.7c0.1-0.1,0.1,0,0.2,0c0.1,0,0.1-0.1,0.1-0.1l0,0c0,0.1-0.1,0.1-0.2,0.1
				c-0.1,0-0.2-0.1-0.3-0.2c0-0.1,0.1-0.2,0.2-0.2c0.1,0,0.1,0,0.2,0.1l0-0.1h0.1l0.1,0.4c0,0.1,0,0.1,0,0.2c0,0-0.1,0.1-0.2,0.1
				C59.2,40.7,59.1,40.7,59,40.7z M59.3,40.3c0-0.1-0.1-0.1-0.2-0.1S59,40.3,59,40.3c0,0.1,0.1,0.1,0.2,0.1
				C59.3,40.5,59.3,40.4,59.3,40.3z"/>
		</g>
	</g>
</g>
<g>
	<g>
		<g>
			<path class="st16" d="M30.4,36.4c0,0,0.1-1-1-1c0,0,0.3,0.1,0.5,0.3c0,0-0.7-0.4-1.5,0.2c-0.8,0.7-0.3,2.3-0.5,2.6
				c-0.2,0.3-1.2,0.4-1.1,1.4c0.1,1,3,2.3,2.8,3.1c0,0,1.1-1.6,0.3-2.4c0,0,0.4,0.4,0.4,0.8c0,0,0.1-0.8-0.4-1.1
				C29.4,40,29,39.1,29.1,39C29.1,38.8,30.4,36.4,30.4,36.4z"/>
		</g>
		<g>
			<path class="st17" d="M29.3,41.3c0,0,0.8,3.5,1.7,4.2c0.5,0.4,2,1.4,2,1.4l-0.6,0.2c0,0-2.1-0.7-2.5-1.2
				c-0.5-0.5-1.7-3.3-1.7-3.3L29.3,41.3z"/>
		</g>
		<g>
			<path class="st18" d="M34.2,48.1L34,47.6c-0.2-0.5-0.7-0.9-1.3-0.9H29v2.3V59h15.2v-9.9h-8.6C35,49.1,34.4,48.7,34.2,48.1z"/>
		</g>
		<g>
			<path class="st19" d="M21.4,47.4C21.4,47.4,21.4,47.4,21.4,47.4c0.2,0.4,0.6,1.2,1.1,2c0.2,0.4,0.5,0.8,0.7,1.2
				c0.4,0.7,0.7,1.3,0.9,1.6c0.2,0.3,0.4,0.6,0.4,0.7c0,0,0,0,0,0c0,0,0,0.1,0,0.1c0,0.3,0,0.6,0,0.9c0.3,2.8,2.2,4.3,2.2,4.3
				l0.6,0.1c0,0-0.8-3-1-4.6c0-0.3-0.1-0.5,0-0.7c0-0.4,0-1.1-0.2-1.8c-0.3-1.3-0.7-2.9-1.2-4.2c0-0.1-0.8-2.9-0.8-2.9
				c-0.7,0.6-3.1,0.8-3.1,0.8S20.5,45.9,21.4,47.4z"/>
		</g>
		<g>
			<path class="st20" d="M28.4,59h-2.3c0,0-0.1-0.4,0.1-0.6c0.1-0.3,0.3-0.3,0-0.7c0.1,0.2,0.6,0.2,1,0.2c0,0.1,0.3,0.5,0.4,0.6
				C27.7,58.6,28.4,58.6,28.4,59z"/>
		</g>
		<g>
			<path class="st20" d="M21.4,47.4C21.4,47.4,21.4,47.4,21.4,47.4c0.2,0.4,1.2,2.2,1.7,3.1c-0.5-2.2-0.2-4.5-0.2-4.5L21.4,47.4z"/>
		</g>
		<g>
			<path class="st16" d="M30.1,36.3c0-0.1-1.3,0.6-1.4,0.7c-0.6,0.7-0.5,1.6-0.1,1.6c0.2,0,0.2,0.4,0.2,0.4l2.6-1.1
				C31.4,37.9,31.1,36,30.1,36.3z"/>
		</g>
		<g>
			<path class="st2" d="M29.2,40.7c0,0,0.4,0.8,0.3,1.4c0,0-0.5,0.8-1.7,0.9C27.9,43.1,28.9,40.7,29.2,40.7z"/>
		</g>
		<g>
			<path class="st19" d="M23.2,45.1l0-0.4c-0.9,0.1-3-1-3-1s-0.9,0.6-1,2.3c-0.1,0.8-0.4,4.4-0.5,5.5c0,0.4,0,0.7,0,0.8c0,0,0,0,0,0
				c0,0,0,0.1,0,0.1c-0.2,0.2-0.3,0.5-0.5,0.7c-1.3,2.5-0.6,5.9-0.6,5.9l0.3-0.1c0,0,1.1-3.5,1.9-5c0.1-0.3,0.2-0.5,0.3-0.6
				c0.3-0.3,0.6-0.9,0.9-1.6C21.4,50.4,23.2,45.1,23.2,45.1z"/>
		</g>
		<g>
			<path class="st20" d="M19.4,59H17c0,0-0.1-0.4,0.1-0.6c0.1-0.3,0.3-0.4,0.3-0.7c0.1,0.2,0.4,0.3,0.7,0.3c0,0.1,0.3,0.4,0.4,0.5
				C18.6,58.6,19.3,58.6,19.4,59z"/>
		</g>
		<g>
			<path class="st2" d="M27.7,43.6c-0.3,0.1,0.1,0.3-0.4,0.4c-0.6,0.1-1.3,0.1-1.6,0.2c-0.1,0-0.2,0.1-0.2,0.2
				c-0.1,0.4-1.1,1.2-1.1,1.2c-4.1-0.2-4.4-2-4.4-2c2.7-2.6,4.9-4,6.8-4.2c0.5,0,1.1,0,1.4,0.1c0.7,0.3,1,1.2,1,1.2
				S28.9,43.4,27.7,43.6z"/>
		</g>
		<g>
			<path class="st21" d="M27.3,44c-0.6,0.1-1.3,0.1-1.6,0.2c-1-1.9,0.8-3.6,0.8-3.6S27.2,43.2,27.3,44z"/>
		</g>
		<g>
			<path class="st17" d="M27.9,40.3c0,0-1.6-0.1-1.8,0.9c-0.3,1,0.5,4.9,0.7,5.3c0.3,0.7,1.9,2.9,1.9,2.9l0.5-0.3c0,0-1-3.2-1.2-3.5
				C27.5,45.1,28.3,40.7,27.9,40.3z"/>
		</g>
		<g>
			<path class="st17" d="M29.1,49.1c0,0,0.1,0.1,0.2,0.2c0.1,0.1,0,0.2,0.3,0.8c0,0,0,0.1-0.1,0.1c-0.1,0-0.3-0.2-0.4-0.2
				c0,0-0.1,0.1-0.1,0.3c0,0.2,0,0.7,0,0.8c0,0.1-0.3-0.4-0.4-0.7c-0.1-0.3,0-1.3,0-1.3L29.1,49.1z"/>
		</g>
		<g>
			<path class="st2" d="M25.7,42.5c0,0,1.5,0.3,2.4-0.2c0,0,0.8-2.4-0.3-2.3c-1.1,0.1-1.7,0.5-1.8,1C26,41.5,25.7,42.5,25.7,42.5z"
				/>
		</g>
		<g>
			<path class="st17" d="M28.2,39.7c0,0.2,0,0.4,0.3,0.7c0.2,0.2,0.5,0.4,0.7,0.2c0.1-0.1,0.2-0.3,0.3-0.4c0.2-0.3,0.4-0.6,0.4-0.6
				L29,38.8l-0.1,0c-0.2,0.4-0.5,0.6-0.7,0.7C28.2,39.6,28.2,39.7,28.2,39.7z"/>
		</g>
		<g>
			<path class="st22" d="M29.8,39.6c0,0-0.2,0.3-0.4,0.6c-0.5-0.3-0.5-1-0.5-1.4L29.8,39.6z"/>
		</g>
		<g>
			<path class="st17" d="M29.9,40c0,0-1.3-0.7-0.9-1.6c0.5-0.8,0.6-1.5,1.5-1c0.9,0.4,0.8,0.8,0.8,1.2C31.2,38.9,30.2,40.2,29.9,40z
				"/>
		</g>
		<g>
			<path class="st16" d="M31.5,38.1c-0.1-0.4-0.2-0.4-0.4-0.4c-0.5-0.8-1.3-0.5-1.3-0.5c-0.4,0.5-1,0.6-1,0.6s0.2,0.3,0.8,0.5
				c0.2,0.1,0.4,0,0.6,0c-0.4,0.2-0.9,0.3-0.9,0.3c0.8,0.1,1.6-0.7,1.7-0.8c0,0.1,0.1,0.4,0.1,0.5c-0.1,0.2-0.3,0.7-0.1,0.8
				C30.9,39.1,31.6,38.6,31.5,38.1z"/>
		</g>
		<g>
			<path class="st17" d="M33.2,46.9c0,0-0.4,0.3-0.1,0.5c0.3,0.2,0.8,0.2,0.8,0.1C33.9,47,33.7,46.7,33.2,46.9z"/>
		</g>
	</g>
	<g>
		<path class="st2" d="M33,55.4h7.8c0.3,0,0.6-0.5,0.6-0.8c0-1.1-1.2-2.9-3.8-2.1c0,0-0.8-2-3.4-1.8c-1.6,0.1-2.4,1.7-2.5,3.1
			C31.6,54.7,32.2,55.4,33,55.4z"/>
	</g>
	<g>
		<g>
			
				<rect x="35.8" y="53.7" transform="matrix(-1 -1.224647e-16 1.224647e-16 -1 73.0494 110.9169)" class="st8" width="1.5" height="3.5"/>
		</g>
		<g>
			<polygon class="st8" points="38.4,54.4 34.6,54.4 36.5,52.6 			"/>
		</g>
	</g>
</g>
<g>
	<g>
		<polygon class="st20" points="72,38.1 70,38.6 69,40.3 68.3,36.3 		"/>
	</g>
	<g>
		
			<rect x="70.2" y="38.1" transform="matrix(0.7987 -0.6017 0.6017 0.7987 -9.3626 50.2217)" class="st20" width="0.4" height="2.1"/>
	</g>
</g>
<g>
	<g>
		<path class="st11" d="M87,32.9c0,0,2.2,2.2,2.3,3.1c0.1,0.9-1.1,2.3-1.1,2.3L87,32.9z"/>
	</g>
	<g>
		<path class="st23" d="M85.8,57.8c0,0-0.1,1.3-0.3,1.3c0,0-1.3,0-1.3,0l-1.6,0c0,0,0-0.4,0.5-0.5c0.5-0.1,1.2-0.4,1.5-1
			C84.9,57,85.8,57.8,85.8,57.8z"/>
	</g>
	<g>
		<path class="st23" d="M89.3,57.8c0,0-0.1,1.3-0.3,1.3c0,0-1.3,0-1.3,0l-1.6,0c0,0,0-0.4,0.5-0.5c0.5-0.1,1.2-0.4,1.5-1
			C88.4,57,89.3,57.8,89.3,57.8z"/>
	</g>
	<g>
		<path class="st24" d="M84.1,43.9c0,0,0.4,2.6,1.9,7.3c1.5,4.7,1.7,6.7,1.7,6.7l1.6,0c0,0,0-5.1-0.7-7.4C88,48.1,88.6,42,88.6,42
			L84.1,43.9z"/>
	</g>
	<g>
		<path class="st25" d="M83.3,42.1c0,0-0.1,4,0.6,8.8c0.7,4.9,0.4,6.9,0.4,6.9l1.6,0.1c0,0,1-4.9,0.7-7.3c-0.3-2.4,1.4-8.3,1.4-8.3
			L83.3,42.1z"/>
	</g>
	<g>
		<path class="st17" d="M86.5,32.9l-0.9,0.6l-1.3-0.2c0-0.1,0.1-0.5,0.2-0.9c0,0,0,0,0-0.1c0.1-0.3,0.1-0.6,0.1-0.6l1.2-0.5l0.4-0.2
			c0,0,0,0.4,0,0.4C86.2,32.2,86.5,32.9,86.5,32.9z"/>
	</g>
	<g>
		<path class="st11" d="M84.7,32.6c0,0,1.5-0.4,1.7-0.4c0.2,0.1,0.3,0.4,0.3,0.4l-2.4,0.5C84.2,33.1,84.4,32.7,84.7,32.6z"/>
	</g>
	<g>
		<path class="st8" d="M88.7,42.6c-0.3,1.2-4.5,1.3-5.6,0.2C83,42.7,83,42.2,83,41.4c0.1-1.5,0.4-3.7,0.4-4.8c0-0.5,0.1-1.1,0.2-1.6
			c0.2-1.1,0.5-1.9,0.5-1.9s2.1-0.7,2.4-0.5C88.5,33.1,88.9,41.5,88.7,42.6z"/>
	</g>
	<g>
		<path class="st11" d="M83,41.4c0.1-1.5,0.4-3.7,0.4-4.8c0-0.5,0.1-1.1,0.2-1.6l1.2-0.2C84.9,34.8,86.2,40.1,83,41.4z"/>
	</g>
	<g>
		<path class="st17" d="M83.7,39.4c0,0,0.1,0.2-0.1,0.3c-0.2,0.1-0.3,0.4-0.3,0.5c0,0.2,0.4,0.4,0.6,0.4c0.1,0,0.4-0.3,0.4-0.3
			c0-0.1,0.2-0.7-0.1-1C83.8,39,83.7,39.4,83.7,39.4z"/>
	</g>
	<g>
		<path class="st8" d="M85.1,32.9c0,0-1.2,0.2-2.1,1.6c-1,1.4-1.6,2.5-1.4,3c0.2,0.5,1.8,2.3,2.1,2.3c0.3,0,0.7-0.2,0.8-0.7
			c0,0-1-1.8-0.8-2.1c0.1-0.1,1.4-1.1,1.6-0.6C85.4,37.2,85.1,32.9,85.1,32.9z"/>
	</g>
	<g>
		<path class="st26" d="M86.1,31.3c-0.3,0.4-1.2,0.8-1.6,1c0,0,0,0,0-0.1c0.1-0.3,0.1-0.6,0.1-0.6l1.2-0.5
			C86.1,31.1,86.3,31.2,86.1,31.3z"/>
	</g>
	<g>
		<path class="st17" d="M84.2,31.5c0,0,1.9,0.6,2.3-0.6s0.8-1.9-0.4-2.3c-1.2-0.4-1.6,0-1.8,0.3C84.1,29.3,83.7,31.4,84.2,31.5z"/>
	</g>
	<g>
		<path class="st24" d="M84.4,28.8c0,0,0.1,1.4,0.4,1.3c0.3-0.1,0.5-0.1,0.5,0.3c0,0.4-0.4,0.9,0.4,1c0.9,0.1,2.2-2.2,1.9-2.6
			C87,27.6,83.4,27.3,84.4,28.8z"/>
	</g>
</g>
<g>
	<path class="st27" d="M106.9,59.3H4.8c-0.1,0-0.1-0.1-0.1-0.1l0,0c0-0.1,0.1-0.1,0.1-0.1h102.1c0.1,0,0.1,0.1,0.1,0.1v0
		C107,59.2,106.9,59.3,106.9,59.3z"/>
</g>
</svg>
