<?xml version="1.0" encoding="utf-8"?>
<!-- Generator: Adobe Illustrator 22.1.0, SVG Export Plug-In . SVG Version: 6.00 Build 0)  -->
<svg version="1.1" id="图层_1" xmlns="http://www.w3.org/2000/svg" xmlns:xlink="http://www.w3.org/1999/xlink" x="0px" y="0px"
	 viewBox="0 0 110 60" style="enable-background:new 0 0 110 60;" xml:space="preserve">
<style type="text/css">
	.st0{fill:#F1F1FF;}
	.st1{fill:#E6E4FF;}
	.st2{opacity:0.5;}
	.st3{fill:#E4E4FF;}
	.st4{fill:#A9C2FF;}
	.st5{fill:#BFB0F1;}
	.st6{fill:#CEC5F7;}
	.st7{fill:#9BD399;}
	.st8{fill:#1E3865;}
	.st9{fill:#1A2E35;}
	.st10{fill:#FFC3B9;}
	.st11{fill:#2B454E;}
	.st12{fill:#FFC3B6;}
	.st13{fill:#375A64;}
	.st14{fill:#FD9988;}
	.st15{fill:#191D80;}
	.st16{fill:#F5F5F5;}
	.st17{fill:#B0494C;}
	.st18{fill:#FF9090;}
	.st19{fill:#D268CC;}
	.st20{opacity:0.5;fill:#FAC5E7;}
	.st21{fill:#FFBFA8;}
	.st22{fill:#FF9A79;}
	.st23{fill:#F0F0F0;}
	.st24{opacity:0.3;}
	.st25{fill:#C76668;}
	.st26{opacity:0.2;}
	.st27{fill:#D3D3E9;}
	.st28{fill:#2D3554;}
</style>
<g>
	<path class="st0" d="M16,59c0,0-7-2.1-8.5-15.2S5.7,3.2,36.8,2c0,0,11.6-0.8,18.2,7.3s16.4,4.2,23.6,7.1s29.6,9.3,15.3,42.6H16z"/>
	<g>
		<g>
			<path class="st1" d="M14.8,39c-0.7-2.6,3.5-4.1,3.5-4.1s4.9,2.4,5.7,2.1c0.8-0.3-3.8-2.9-3.8-2.9c1.4-1,6.1-1.4,6.1-1.4
				s2.5,4.7,3.1,4.2S27,32.8,27,32.8c1.7-0.4,3.9,0.5,3.9,0.5c3.2,1.7,0.8,5.7,0.8,5.7s0.9,1.6,2.9,2.9l0,0c0,0,0.4,0.2,1,0.6
				l-0.4,0.2c-0.1-0.1-0.2-0.2-0.3-0.2c0,0,0,0,0,0c0,0,0,0,0,0c-0.1,0-0.1-0.1-0.3-0.2c0,0,0,0,0,0c0,0,0,0,0,0
				c-0.3-0.2-0.4-0.3-0.6-0.4c0,0,0,0,0,0c-0.8-0.5-1.8-1.2-2.3-1.2c0,0,0-0.1,0-0.2c0,0.1,0,0.1,0,0.2c0.2,1.8-3,3.9-5,4.6
				c-2,0.7-1.6-0.3-1.1-1.7c0.5-1.4,2.7-2.4,3.1-3.1s-0.7-0.5-1.8,0.3c-1.2,0.8-1.1,2.4-2.9,3.7c-1.9,1.3-5.5-1.5-5.5-1.5
				c1.6-0.4,3.6-2.6,3.4-3.1c-0.2-0.5-3.8,1.6-4.4,1.8C17.1,42.1,15.5,41.6,14.8,39z"/>
		</g>
	</g>
	<g>
		<g>
			<path class="st1" d="M88.1,54.8c2.6-2.5-1.2-7.2-1.2-7.2s-7.3-0.5-8-1.5c-0.7-1,6.4-0.8,6.4-0.8c-0.9-2.1-6.1-5.8-6.1-5.8
				s-6.1,3.8-6.5,2.7c-0.4-1.1,5.6-3.1,5.6-3.1c-1.6-1.6-4.9-2.1-4.9-2.1c-4.9-0.2-4.9,6.1-4.9,6.1s-2.1,1.3-5.4,1.3l0,0
				c0,0-0.6,0-1.6,0.1l0.3,0.5c0.2,0,0.3-0.1,0.5-0.1c0,0,0,0,0,0c0,0,0,0,0,0c0.1,0,0.2,0,0.4,0c0,0,0,0,0,0c0,0,0,0,0,0
				c0.4,0,0.7,0,0.9-0.1c0,0,0,0,0,0c1.2-0.1,2.9-0.1,3.4,0.2c0,0,0-0.1,0.2-0.2C67,44.9,67,45,66.9,45.1c-1.4,2,0.7,6.6,2.6,8.8
				c1.9,2.2,2,0.7,2.4-1.2c0.4-2-1.5-4.6-1.5-5.7c0-1.1,1.1-0.1,1.9,1.6c0.8,1.7-0.4,3.5,0.8,6.3c1.2,2.8,7.4,2.1,7.4,2.1
				c-1.6-1.5-2.4-5.4-1.9-5.9c0.6-0.5,3.2,4.5,3.9,5.1C83.2,56.9,85.5,57.4,88.1,54.8z"/>
		</g>
	</g>
	<g>
		<g>
			<g class="st2">
				<path class="st3" d="M32.9,28c0,0-3.3-3.5-7-4.3c-0.5-0.1-0.8,0.5-0.5,0.9c0,0,0,0,0,0C25.9,25.2,30.2,26.5,32.9,28z"/>
			</g>
			<g class="st2">
				<path class="st3" d="M33.9,28.9c0,0-5.5-3.3-10.5-2.9c-0.3,0-0.5,0.3-0.5,0.6c0,0.2,0.1,0.4,0.5,0.7
					C24.3,27.9,30.1,27.9,33.9,28.9z"/>
			</g>
		</g>
	</g>
	<g class="st2">
		<g class="st2">
			<path class="st4" d="M73,36.5c0,0,0.8-4.9,3.5-7.8c0.4-0.4,1-0.1,1,0.4c0,0,0,0,0,0C77.3,30,74.3,33.7,73,36.5z"/>
		</g>
		<g class="st2">
			<path class="st4" d="M72.6,37.9c0,0,2.8-6.1,7.2-8.7c0.3-0.2,0.6-0.1,0.8,0.2c0.1,0.2,0.2,0.4,0,0.8
				C80.3,31.4,75.3,34.8,72.6,37.9z"/>
		</g>
	</g>
	<g>
		<g>
			<path class="st5" d="M74.8,22l1.2-0.1c0.1,0,0.2,0,0.3,0.1c0.1,0.1,0.1,0.2,0.2,0.3c0.1,0.2,0.3,0.4,0.5,0.5
				C77,22.9,77,23,77,23.1l-0.5,1.2c-0.1,0.1,0,0.3,0.1,0.3l1,0.5c0.1,0.1,0.3,0,0.3-0.1l0.6-1c0.1-0.1,0.2-0.1,0.3-0.1
				c0.5,0.1,1,0.2,1.5,0.2c0.1,0,0.2,0.1,0.3,0.2l0.2,0.7c0,0.1,0.2,0.2,0.3,0.2l1.1-0.2c0,0,0,0,0.1,0c0.1,0,0.2-0.2,0.1-0.3
				l-0.1-0.9l0-0.2c0.2-0.1,0.4-0.2,0.5-0.4c0.2-0.2,0.5-0.4,0.6-0.6c0.1-0.1,0.2-0.1,0.3-0.1l0.9,0.4c0.1,0.1,0.3,0,0.3-0.1
				l0.4-0.8l0.1-0.2c0.1-0.1,0-0.3-0.1-0.3l-0.8-0.5c-0.1-0.1-0.1-0.2-0.1-0.3c0.1-0.3,0.1-0.7,0.1-1c0,0,0-0.1,0-0.1c0,0,0,0,0,0
				c0-0.1,0.1-0.2,0.2-0.2l1.1-0.3c0,0,0,0,0,0c0.1-0.1,0.2-0.2,0.1-0.3L86,17.5c0-0.1-0.2-0.2-0.3-0.2l-1.3,0.1
				c-0.1,0-0.2,0-0.3-0.1c-0.1-0.2-0.2-0.4-0.4-0.6c-0.1-0.1-0.2-0.2-0.2-0.3c-0.1-0.1-0.1-0.2-0.1-0.3L84,15c0-0.1,0-0.3-0.1-0.3
				l-1-0.5c-0.1-0.1-0.3,0-0.4,0.1L82,15c-0.1,0.1-0.2,0.1-0.3,0.1c-0.5-0.2-0.9-0.2-1.4-0.3c-0.1,0-0.2-0.1-0.2-0.2l-0.3-1
				c0-0.1-0.2-0.2-0.3-0.2l-1.1,0.2c-0.1,0-0.2,0.2-0.2,0.3l0,0.1l0.1,1c0,0.1,0,0.2-0.1,0.3l0,0c-0.2,0.1-0.5,0.3-0.7,0.4
				c-0.1,0.1-0.2,0.2-0.3,0.3c-0.1,0.1-0.2,0.1-0.3,0.1l-1-0.4c-0.1-0.1-0.3,0-0.3,0.1l-0.5,1c0,0,0,0.1,0,0.1c0,0.1,0,0.2,0.1,0.3
				l0.7,0.4c0.1,0.1,0.1,0.1,0.1,0.2c0,0,0,0,0,0.1c-0.2,0.6-0.3,1.2-0.2,1.8c0,0.1,0,0.2-0.1,0.3c0,0,0,0,0,0l-0.9,0.3
				c-0.1,0-0.2,0.2-0.2,0.3l0,0l0.2,1.1C74.5,21.9,74.6,22,74.8,22z M82.5,18.6c0.1,0.2,0.1,0.4,0.2,0.6c0.1,0.4,0,1-0.2,1.3
				c0,0,0,0.1-0.1,0.1c-1.2,2.2-4.3,1.7-4.8-0.7c-0.1-0.3,0-0.8,0.1-1.2c0-0.1,0.1-0.2,0.1-0.2c0.2-0.3,0.4-0.6,0.6-0.8
				C79.7,16.5,81.8,16.9,82.5,18.6z"/>
		</g>
	</g>
	<g>
		<g>
			<path class="st6" d="M67.7,14.6l0.8-0.3c0.1,0,0.1,0,0.2,0c0.1,0.1,0.1,0.1,0.2,0.2c0.1,0.1,0.3,0.2,0.4,0.3
				c0.1,0,0.1,0.1,0.1,0.2L69.3,16c0,0.1,0,0.2,0.1,0.2l0.8,0.2c0.1,0,0.2,0,0.2-0.1l0.3-0.8c0-0.1,0.1-0.1,0.2-0.1
				c0.4,0,0.7,0,1.1-0.1c0.1,0,0.2,0,0.2,0.1l0.3,0.4c0,0.1,0.2,0.1,0.2,0.1l0.8-0.3c0,0,0,0,0,0c0.1,0,0.1-0.1,0.1-0.2l-0.2-0.6
				l-0.1-0.1c0.1-0.1,0.2-0.2,0.3-0.3c0.1-0.2,0.3-0.3,0.4-0.5c0-0.1,0.1-0.1,0.2-0.1l0.7,0.1c0.1,0,0.2,0,0.2-0.1l0.2-0.6l0-0.2
				c0-0.1,0-0.2-0.1-0.2l-0.7-0.2c-0.1,0-0.1-0.1-0.1-0.2c0-0.2,0-0.5-0.1-0.7c0,0,0,0,0-0.1c0,0,0,0,0,0c0-0.1,0-0.1,0.1-0.2
				l0.7-0.4c0,0,0,0,0,0c0.1-0.1,0.1-0.1,0.1-0.2l-0.3-0.8c0-0.1-0.1-0.1-0.2-0.1l-0.9,0.3c-0.1,0-0.2,0-0.2-0.1
				c-0.1-0.1-0.2-0.2-0.4-0.4c-0.1-0.1-0.1-0.1-0.2-0.2C73,9.3,73,9.2,73,9.2l0.1-0.9c0-0.1,0-0.2-0.1-0.2l-0.8-0.2
				c-0.1,0-0.2,0-0.2,0.1l-0.2,0.6c0,0.1-0.1,0.1-0.2,0.1c-0.3,0-0.7,0-1,0c-0.1,0-0.2,0-0.2-0.1L69.9,8c0-0.1-0.2-0.1-0.2-0.1
				l-0.8,0.3c-0.1,0-0.1,0.1-0.1,0.2l0,0l0.2,0.7c0,0.1,0,0.2-0.1,0.2l0,0c-0.1,0.1-0.3,0.3-0.4,0.4c-0.1,0.1-0.1,0.2-0.2,0.3
				c0,0.1-0.1,0.1-0.2,0.1l-0.7-0.1c-0.1,0-0.2,0-0.2,0.1L67,11c0,0,0,0,0,0.1c0,0.1,0.1,0.1,0.1,0.2l0.5,0.2c0.1,0,0.1,0.1,0.1,0.1
				c0,0,0,0,0,0.1c-0.1,0.4,0,0.9,0.1,1.3c0,0.1,0,0.1-0.1,0.2c0,0,0,0,0,0l-0.6,0.3c-0.1,0-0.1,0.2-0.1,0.2l0,0l0.3,0.7
				C67.5,14.6,67.6,14.7,67.7,14.6z M72.6,11.1c0.1,0.1,0.1,0.2,0.2,0.4c0.1,0.3,0.1,0.7,0.1,1c0,0,0,0.1,0,0.1
				c-0.5,1.7-2.7,1.9-3.5,0.2c-0.1-0.2-0.1-0.6-0.1-0.8c0-0.1,0-0.1,0-0.2c0.1-0.2,0.2-0.5,0.3-0.6C70.3,10,71.9,10,72.6,11.1z"/>
		</g>
	</g>
	<g>
		<path class="st7" d="M8.7,59.1h3.5c0.2-0.2-0.1-0.5-0.5-0.6c-0.1,0-0.3,0-0.5,0.1c0-0.6-0.3-3.6-1.4-3.4c-1.2,0.1,0,1.3,0.3,2
			c0.2,0.5,0.5,1.2,0.6,1.6c-0.1,0-0.2,0-0.3,0.1c-0.2-0.5-0.7-2.1-1.5-2c-0.9,0.1-0.5,0.8,0.1,1.1c0.5,0.3,1,0.7,1.3,0.9
			c-0.2,0-0.5,0.1-0.7,0.1C9.1,58.8,8.8,59,8.7,59.1z"/>
	</g>
	<g>
		<path class="st7" d="M95.7,59h-4c-0.2-0.2,0.1-0.6,0.5-0.6c0.2,0,0.4,0,0.6,0.1c0.1-0.7,0.4-4,1.6-3.9c1.3,0.1,0,1.5-0.4,2.2
			c-0.3,0.6-0.6,1.4-0.7,1.8c0.1,0,0.2,0,0.3,0.1c0.2-0.5,0.8-2.4,1.7-2.3c1,0.1,0.6,0.9-0.1,1.3c-0.5,0.3-1.1,0.8-1.4,1
			c0.3,0,0.5,0.1,0.8,0.1C95.2,58.7,95.6,58.9,95.7,59z"/>
	</g>
	<g>
		<g>
			<polygon class="st8" points="70.6,37.7 68.6,38.2 67.6,40 66.8,35.9 			"/>
		</g>
		<g>
			
				<rect x="68.8" y="37.7" transform="matrix(0.7987 -0.6017 0.6017 0.7987 -9.4459 49.2916)" class="st8" width="0.4" height="2.1"/>
		</g>
	</g>
	<g>
		<path id="XMLID_00000172401159727616282660000012598672608169832606_" class="st9" d="M28.7,51.4c0,0-0.5,0.1-0.9,0.4
			c-0.3,0.4-1.1,1.5-1.2,1.6c0,0,0.1,0.2,0.3,0.3l0.4-0.4c0.1-0.1,0.1-0.1,0.1,0.1c0,0.2-0.1,0.5-0.1,0.8c0,0.3-0.1,0.8,0.4,1.4
			c0.4,0.5,0.9,0.8,1.2,0.9c0.2,0,0.6,0,0.6-0.4c0-0.2-0.1-0.9-0.1-1.3C29.4,54.5,28.7,51.4,28.7,51.4z"/>
		<path class="st10" d="M32.5,45c-0.5,0.7-1.6,1.9-2.3,3.5c-0.6,1.3-1.1,2.2-1.2,2.4c-0.1,0.2-0.3,0.5-0.4,0.6
			c-0.4,0.5-0.5,0.8-0.5,2.1c0,0.2-0.1,1,0.7,1.6c0.4,0.3,0.7,0.3,0.7-0.1c0-0.6,0-1.7,0.7-2.7c0.2-0.4,3.4-3.7,4.3-4.7c0,0,0,0,0,0
			c0,0,0,0,0,0c0.8-0.9,1.6-1.9,2-2.7H32.5z"/>
		<g>
			<path class="st11" d="M32.2,45C32.2,45.1,32.2,45.1,32.2,45c-0.4,0.5-1.2,1.1-1.6,2.2c-0.5,1.1-1.2,3-1.2,3s0.1,0.5,0.5,0.9
				c0.5,0.4,0.9,0.6,0.9,0.6l2.3-2.4l0.2-4.3H32.2z"/>
		</g>
		<g>
			<g>
				<path id="XMLID_00000064337363720588967900000003978728712455037346_" class="st9" d="M31.6,54.4c0,0-0.4,0.4-0.4,0.9
					c0,0.5,0.1,2,0.1,2.2c0,0,0.2,0.1,0.4,0.1l0.1-0.6c0-0.1,0-0.2,0.2,0c0.1,0.2,0.3,0.5,0.5,0.8c0.2,0.2,0.4,0.8,1.1,0.9
					c0.7,0.2,1.2,0.1,1.5-0.1c0.2-0.1,0.4-0.4,0.2-0.7c-0.1-0.2-0.6-0.7-0.9-1.1C34.1,56.5,31.6,54.4,31.6,54.4z"/>
			</g>
		</g>
		<path id="XMLID_00000000920986840044047600000001869501993411060908_" class="st12" d="M33.4,54.3c-0.1-1.4,1-7.8,0.5-10.7
			l-3.7,0.1c0.2,0.8,0.4,1.8,0.5,2.6c0.1,0.8-0.1,2.7,0.4,4.7c0.4,1.5,0.5,2.6,0.5,2.8c0,0.2,0,0.7,0,0.8c0,0.7,0.1,1.1,0.9,2.1
			c0.2,0.2,0.5,0.9,1.5,1c0.5,0,0.7-0.2,0.5-0.5C34.2,56.6,33.5,55.7,33.4,54.3z"/>
		<path id="XMLID_00000137097019728236160700000008268106134979848341_" class="st13" d="M37,43c0-1,0-3.7-0.7-8
			c-0.1-0.6-0.3-1.3-0.4-1.8c-1.1,0.8-4,0.9-5.3,0.1c-0.2,0.3-0.8,1.2-1.2,2.3c-0.4,1-0.5,1.7-0.5,2.9c0.1,1.1,1,4.6,1.5,6
			c0.3,1.4,0.3,2.4,0.2,3.2c0,0.8,0.3,3.4,0.9,5.6c0,0,0.3,0.3,1,0.2c0.7,0,0.9-0.3,0.9-0.3l0.5-4.6c0,0,1.1-1.6,1.8-2.4
			C36.4,45.5,37,44.6,37,43z"/>
		<path class="st11" d="M34,48.7c0.2-1.9,0.1-3.8,0.1-5.1c0-1.3-0.4-5.5-0.4-5.5s1.1-0.5,1.6-1.6c-0.3,1.3-1.2,1.8-1.2,1.8
			s0.2,3.7,0.3,5.9C34.5,46.5,34,48.7,34,48.7z"/>
		<path class="st14" d="M45,27.6c0.1,0,0.2,0.1,0.1,0.2C44.9,28,44.5,28,44.3,28c0,0-0.6,0.4-0.6,0.6c0.1-0.1,0.6-0.2,0.7-0.3
			c0,0,0.2,0,0.5-0.1c0.1,0,0.1,0,0.2,0c0,0,0.1,0.1,0,0.2c-0.2,0.2-0.4,0.1-0.6,0.2c-0.1,0-0.3,0.1-0.4,0.3c0,0.1,0.1,0,0.2,0
			c0.1,0,0.1,0,0.2,0c0.1,0,0.3,0,0.4,0.1c0.1,0,0.1,0,0.1,0.1c0,0.1-0.1,0.1-0.1,0.1c-0.1,0.1-0.3,0-0.5,0c-0.2,0-0.3,0.1-0.4,0.2
			c-0.2,0.2-0.3,0.4-0.5,0.5c-0.1,0.2-0.3,0.4-0.5,0.5c-0.1,0.1-0.2,0.1-0.4,0.1c-0.1,0-0.2,0-0.2-0.1c0-0.1,0-0.2,0-0.2
			c0-0.2,0.1-0.4,0.2-0.5c0.1-0.2,0.2-0.5,0.3-0.7c0.1-0.1,0.6-1.1,0.6-1.1c0,0,1.1-0.2,1.1-0.2C44.7,27.6,44.9,27.6,45,27.6z"/>
		<g>
			<path class="st12" d="M36.2,29c0.3,0.2,2.7,1.7,2.7,1.7s2.1-0.9,2.6-1.1c0.6-0.3,0.8-0.7,1-1.1c0.3-0.5,0.4-0.5,0.6-0.7
				c0.2-0.1,0.5-0.3,0.5-0.4c0.1,0,0.1,0,0.2-0.1c0,0,0.2,0,0.2,0c0.2,0,0.3,0,0.5-0.1c0.1,0,0.1,0,0.2,0c0,0,0,0,0,0c0,0,0,0,0,0.1
				c0,0.1-0.1,0.2-0.2,0.3c-0.1,0.1-0.2,0.1-0.3,0.1c-0.1,0-0.1,0-0.3,0c0,0-0.1,0-0.2,0.1c-0.4,0.3-0.4,0.4-0.6,0.6
				c0.3-0.1,0.5-0.2,0.7-0.3c0.2-0.2,0.3,0.1,0.1,0.3c-0.2,0.3-0.5,0.3-0.8,0.7c-0.3,0.4,0,0.8-0.5,1.1c-0.2,0.1-0.6,0.2-0.9,0.5
				c-0.5,0.4-2.1,1.5-2.4,1.7c-0.7,0.4-0.8,0.3-2.3-0.5c-2.1-1.2-2.4-1.5-2.4-1.5L34.4,28C34.9,28.2,35.2,28.3,36.2,29z"/>
		</g>
		<path class="st15" d="M34.1,27.9c0.5,0.1,0.8,0.1,1.9,0.7c1,0.6,2.9,2,2.9,2l0.7-0.3c0,0-0.1,0.4,0.2,0.9c0.2,0.5,0.6,0.8,0.6,0.8
			s0,0-0.7,0.5c-0.6,0.4-0.9,0.5-1.1,0.5c-0.2,0-0.4-0.1-0.9-0.4c-0.5-0.2-3.1-1.6-3.1-1.6L34.1,27.9z"/>
		<path class="st14" d="M43.2,28.6c-0.1,0-0.4,0.2-0.4,0.2c0,0,0-0.1,0.2-0.2c0.2-0.1,0.4-0.1,0.4-0.2L43.2,28.6z"/>
		<path class="st16" d="M29.3,35.9c0.3-0.8,0.5-1.3,0.5-1.5c-0.1-1.1-1.1-2.3-1.2-3c-0.3-1.3,0.4-2.6,0.7-2.9c0,0,0.6-0.2,1-0.3
			c0.2-0.1,0.6-0.2,1-0.2c0.8-0.2,1.1-0.2,1.4-0.2c0.1,0,0.9,0.1,0.9,0.1c0.2,0,0.6,0.1,0.6,0.1c0,0,0.5,0.4,1,1.1
			c0.4,0.6,0.5,1.1,0.7,2.4c0.2,1.7,0.4,3.3,0.5,3.9C35,36.3,31.8,36.6,29.3,35.9z"/>
		<path class="st9" d="M29.3,22.9c-0.1,0.1-0.1,0.3-0.1,0.4c0,0.2,0.1,0.3,0.1,0.5c0,0.1-0.1,0.1-0.1,0.2c-0.1,0.2-0.1,0.5,0,0.7
			c0.1,0.2,0.4,0.4,0.5,0.6c0.1,0.2,0.1,0.5,0.2,0.8c0.1,0.2,0.4,0.3,0.6,0.5c0.1,0.1,0.1,0.2,0.1,0.3c0.1,0.2,0.3,0.2,0.5,0.3
			c0.1,0,0.6,0.5,0.6,0.5c0.2-0.4,0.5-0.7,0.9-0.9c0.3-0.1,0.5-0.2,0.8-0.3c0.4-0.2,0.7-0.5,0.8-1c0.1-0.3,0.1-0.6,0.2-0.9
			c0.1-0.2,0.2-0.3,0.3-0.4c0.2-0.3,0.3-0.7,0.1-1c0.2,0,0.4-0.4,0.3-0.6c-0.1,0.1-0.2,0.2-0.4,0.1c-0.1-0.1-0.2-0.2-0.3-0.3
			s-0.1-0.3-0.2-0.4c-0.2-0.3-0.5-0.5-0.9-0.5c-0.2,0-0.4,0.1-0.6,0.1c-0.2,0-0.4-0.1-0.5-0.2c-0.2-0.1-0.5-0.2-0.7-0.2
			c-0.2,0-0.5,0.1-0.6,0.3c-0.1,0.1-0.1,0.3-0.2,0.5c-0.2,0.3-0.6,0.3-0.9,0.5C29.5,22.7,29.4,22.8,29.3,22.9z"/>
		<g id="XMLID_00000091007537509168016520000000565806329357487261_">
			<g>
				<path id="XMLID_12_" class="st12" d="M30.4,26.4c-0.3,0.1-0.5,0-0.7-0.2c-0.4-0.3-0.4-0.7-0.3-1c0.1-0.2,0.4-0.4,0.7-0.2
					c0.3,0.1,0.3,0.3,0.4,0.4c0.1,0.2,0.3,0,0.2-0.7c0.5-0.3,0.3-1,0.6-1.4c0.4-0.5,1-0.4,1.3-0.3c0.2-0.2,0.6-0.3,0.9-0.1
					c0.3,0.1,0.6,0.5,0.8,1.7c0.2,1.2,0,2.1-0.2,2.3c-0.2,0.2-0.5,0.3-1,0.3l0,0.5c0,0,1.4,1.2-0.3,1.2c-1.2,0-1.9-0.9-1.9-0.9
					l-0.1-1.9C30.7,26.2,30.6,26.4,30.4,26.4z"/>
			</g>
		</g>
		<g>
			<path class="st17" d="M33.1,26c0,0.2-0.2,0.3-0.4,0.3c-0.2,0-0.3-0.2-0.3-0.4L33.1,26z"/>
			<path class="st18" d="M32.3,26c0,0.1,0.2,0.3,0.3,0.3c0,0,0.1,0,0.1,0C32.7,26.1,32.5,26,32.3,26z"/>
		</g>
		<g id="XMLID_00000177461415824544267890000005554116662617546169_">
			<path id="XMLID_00000111176680112888737580000002641755956660102552_" class="st9" d="M33.8,23.9l-0.5-0.1c0-0.1,0.2-0.2,0.3-0.2
				C33.7,23.6,33.8,23.7,33.8,23.9z"/>
		</g>
		<g id="XMLID_00000183231836319602867340000010330826809417789864_">
			<path id="XMLID_00000074405667165728404420000013808302659787791502_" class="st9" d="M32,23.9l-0.4,0.3
				c-0.1-0.1-0.1-0.3,0.1-0.4C31.8,23.7,31.9,23.7,32,23.9z"/>
		</g>
		<path class="st11" d="M34.4,23.9C34.3,23.9,34.3,23.9,34.4,23.9c-0.4,0-0.8,0-1,0.1c-0.3,0.1-0.4,0.2-0.5,0.2
			c-0.2,0-0.3-0.1-0.6-0.1c-0.3,0-0.7,0-1,0.1c0,0-0.1,0-0.1,0c-0.1,0-0.1,0.1-0.1,0.2c0,0.1,0.1,0.1,0.1,0.2c0,0,0,0,0,0.1
			c0.1,0.1,0.1,0.4,0.2,0.5c0,0.1,0.1,0.1,0.2,0.2c0,0,0,0,0.1,0c0,0,0,0,0,0c0,0,0.1,0,0.1,0c0,0,0,0,0,0c0,0,0,0,0,0c0,0,0,0,0,0
			c0,0,0.1,0,0.1,0c0,0,0,0,0,0c0,0,0,0,0.1,0c0.4,0,0.5-0.2,0.6-0.4c0.1-0.2,0-0.5,0.2-0.5c0,0,0,0,0,0c0,0,0,0,0,0
			c0.1,0,0.2,0.3,0.3,0.4c0,0.1,0.1,0.1,0.2,0.2c0,0,0,0,0,0c0,0,0,0,0,0c0,0,0,0,0,0c0,0,0,0,0,0c0,0,0,0,0,0c0,0,0,0,0,0
			c0,0,0,0,0,0c0,0,0.1,0,0.2,0c0,0,0,0,0,0c0.1,0,0.1,0,0.2,0c0.4,0,0.5-0.3,0.5-0.4c0-0.1,0-0.4,0-0.5c0,0,0-0.1,0-0.1
			c0,0,0.1-0.1,0.1-0.2C34.5,24,34.4,23.9,34.4,23.9z M32.5,24.9c0,0.1,0,0.2-0.1,0.3l0,0c-0.1,0.1-0.2,0.2-0.4,0.2
			c-0.2,0-0.4,0-0.4-0.1c0,0,0,0,0,0c0,0,0,0,0,0c0,0,0,0,0,0c0,0,0,0,0,0c0,0,0,0,0,0c0,0,0,0,0,0c0,0,0,0,0,0l0,0c0,0,0,0,0-0.1
			c0,0,0,0,0,0c0,0,0,0,0,0c0,0,0,0,0-0.1c0,0,0,0,0,0c0,0,0,0,0,0c0-0.1-0.1-0.4-0.1-0.4c0.1-0.1,0.2-0.1,0.5-0.2c0,0,0,0,0,0
			c0,0,0.1,0,0.1,0c0,0,0,0,0.1,0c0,0,0.1,0,0.1,0c0,0,0,0,0,0c0,0,0,0,0,0c0,0,0,0,0,0c0,0,0,0,0,0c0,0,0.1,0,0.1,0.1
			C32.5,24.6,32.5,24.7,32.5,24.9z M34.3,24.6c0,0.1,0,0.3-0.2,0.5c-0.1,0-0.1,0.1-0.2,0.1c-0.2,0-0.4,0-0.5-0.1c0,0,0,0,0,0
			c0,0,0,0,0,0c0,0,0,0,0,0c0,0,0,0,0,0c0,0,0,0,0,0c0,0,0,0,0,0c0,0,0,0,0,0c0,0,0,0,0,0c0,0,0,0,0,0c0,0,0,0,0,0c0,0,0-0.1,0-0.1
			c-0.1-0.1-0.1-0.3,0-0.4c0-0.1,0.3-0.2,0.5-0.3c0,0,0.1,0,0.1,0c0,0,0,0,0,0c0,0,0,0,0,0c0,0,0,0,0,0c0,0,0,0,0,0c0,0,0,0,0,0
			c0,0,0,0,0,0c0,0,0,0,0.1,0c0,0,0,0,0,0c0,0,0,0,0,0c0,0,0,0,0,0c0,0,0,0,0,0c0,0,0,0,0,0c0,0,0,0,0,0c0,0,0,0,0,0
			c0,0,0.1,0,0.1,0C34.3,24.2,34.3,24.5,34.3,24.6z"/>
		<path class="st11" d="M31.1,24.4l-1,0.6c0.1,0,0.1,0.1,0.2,0.1l0.9-0.5L31.1,24.4z"/>
		<path class="st14" d="M32.9,27.3c-0.6,0-1.5-0.1-1.8-0.5c0.2,0.4,0.6,0.6,1,0.7c0.4,0.1,0.8,0.1,0.8,0.1L32.9,27.3z"/>
		<path class="st9" d="M32.2,24.7c0,0.1-0.1,0.2-0.2,0.2c-0.1,0-0.2-0.1-0.2-0.2c0-0.1,0.1-0.2,0.2-0.2
			C32.1,24.5,32.2,24.6,32.2,24.7z"/>
		<path class="st9" d="M33.8,24.6c0,0.1-0.1,0.2-0.2,0.2c-0.1,0-0.2-0.1-0.2-0.2c0-0.1,0.1-0.2,0.2-0.2
			C33.7,24.4,33.7,24.5,33.8,24.6z"/>
		<path class="st11" d="M51.1,27.7l-0.6-0.4l0,0c-0.2-0.1-0.3-0.1-0.5,0c-0.1,0.1-0.4,0.3-0.6,0.7c-0.2,0.3-0.4,0.6-0.7,0.8
			c-0.1-0.6,0-1.7,0.1-3.2c0-0.6,0.1-1.3,0.1-2L48,23.3c-0.4,0.2-0.8,0.4-1.2,0.7c-1.4,0.8-2.6,1.4-2.9,2.1c-0.3,0.5-0.1,1,0.1,1.3
			c0.2,0.3,0.3,0.6,0.3,0.8c0,0.8-0.6,1.8-1.4,2.2c-0.2,0.1-0.4,0.2-0.6,0.2c0-0.1-0.1-0.3-0.1-0.4c0-0.2,0-0.6,0.3-1.1
			c0.2-0.5,0.4-1.2,0.1-1.4c0,0,0,0-0.1,0l-0.6-0.4c-0.3-0.3-1.2,0.3-2.6,1.1c-0.4,0.2-0.8,0.5-1.3,0.7l0.1,13.2l0.7,0.4l0.3-0.2
			c1.8-1,3.2-1.9,3.7-2.7c0.3-0.5,0.1-1-0.1-1.3c-0.2-0.3-0.3-0.6-0.3-0.8c0-0.8,0.6-1.8,1.4-2.2c0.2-0.1,0.4-0.2,0.6-0.2
			c0,0.1,0.1,0.3,0.1,0.4c0,0.2,0,0.6-0.3,1.1c-0.2,0.5-0.4,1.2-0.1,1.4c0,0,0.1,0,0.1,0.1l0.6,0.4c0.4,0.3,1.5-0.3,3.4-1.4l0.4-0.2
			c0-0.6-0.1-1.2-0.1-1.7c-0.1-1.7-0.2-2.9,0.2-3.6c0.4-0.7,0.9-0.7,1.2-0.6c0.3,0.1,0.5,0,0.6,0c0.5-0.3,0.9-1.3,0.9-2.2
			C51.5,28.3,51.4,27.8,51.1,27.7z"/>
		<path class="st13" d="M45.5,32.6l6.1-3.5c0,0,0-0.1,0-0.1c0-0.6-0.2-1-0.5-1.2l-0.6-0.4l0,0c-0.2-0.1-0.3-0.1-0.5,0
			c-0.1,0.1-0.4,0.3-0.6,0.7c-0.2,0.3-0.4,0.6-0.7,0.8c-0.1-0.6,0-1.7,0.1-3.2c0-0.6,0.1-1.3,0.1-2L48,23.3
			c-0.4,0.2-0.8,0.4-1.2,0.7c-1.4,0.8-2.6,1.4-2.9,2.1c-0.3,0.5-0.1,1,0.1,1.3c0.2,0.3,0.3,0.6,0.3,0.8c0,0.8-0.6,1.8-1.4,2.2
			c-0.2,0.1-0.4,0.2-0.6,0.2c0-0.1-0.1-0.3-0.1-0.4c0-0.2,0-0.6,0.3-1.1c0.2-0.5,0.4-1.2,0.1-1.4c0,0,0,0-0.1,0l-0.6-0.4
			c-0.3-0.3-1.2,0.3-2.6,1.1c-0.4,0.2-0.8,0.5-1.3,0.7l0.7,0.4L45.5,32.6z"/>
		<path class="st19" d="M50.6,27.8c-0.1,0.1-0.4,0.3-0.6,0.7c-0.3,0.5-0.8,1.1-1.2,0.8c-0.4-0.3-0.3-1.7-0.2-3.6
			c0-0.6,0.1-1.3,0.1-2c-0.4,0.2-0.8,0.4-1.2,0.7c-1.4,0.8-2.6,1.4-2.9,2.1c-0.3,0.5-0.1,1,0.1,1.3C45,28,45,28.3,45,28.6
			c0,0.8-0.6,1.8-1.4,2.2c-0.8,0.4-1.4,0.2-1.4-0.6c0-0.2,0-0.6,0.3-1.1c0.2-0.5,0.4-1.2,0.1-1.4c-0.3-0.3-1.2,0.3-2.6,1.1
			c-0.4,0.2-0.8,0.5-1.3,0.7c0,0.5,0.1,12.6,0.1,13.2l0.3-0.2c1.8-1,3.2-1.9,3.7-2.7c0.3-0.5,0.1-1-0.1-1.3
			c-0.2-0.3-0.3-0.6-0.3-0.8c0-0.8,0.6-1.8,1.4-2.2c0.8-0.4,1.4-0.2,1.4,0.6c0,0.2,0,0.6-0.3,1.1c-0.2,0.5-0.4,1.2-0.1,1.4
			c0.4,0.3,1.5-0.3,3.4-1.4l0.4-0.2c0-0.6-0.1-1.2-0.1-1.7c-0.1-1.7-0.2-2.9,0.2-3.6c0.4-0.7,0.9-0.7,1.2-0.6c0.3,0.1,0.5,0,0.6,0
			c0.5-0.3,0.9-1.3,0.9-2.2C51.5,28,51.1,27.5,50.6,27.8z"/>
		<path class="st20" d="M50.6,27.8c-0.1,0.1-0.4,0.3-0.6,0.7c-0.3,0.5-0.8,1.1-1.2,0.8c-0.4-0.3-0.3-1.7-0.2-3.6
			c0-0.6,0.1-1.3,0.1-2c-0.4,0.2-0.8,0.4-1.2,0.7c-1.4,0.8-2.6,1.4-2.9,2.1c-0.3,0.5-0.1,1,0.1,1.3C45,28,45,28.3,45,28.6
			c0,0.8-0.6,1.8-1.4,2.2c-0.8,0.4-1.4,0.2-1.4-0.6c0-0.2,0-0.6,0.3-1.1c0.2-0.5,0.4-1.2,0.1-1.4c-0.3-0.3-1.2,0.3-2.6,1.1
			c-0.4,0.2-0.8,0.5-1.3,0.7c0,0.5,0.1,12.6,0.1,13.2l0.3-0.2c1.8-1,3.2-1.9,3.7-2.7c0.3-0.5,0.1-1-0.1-1.3
			c-0.2-0.3-0.3-0.6-0.3-0.8c0-0.8,0.6-1.8,1.4-2.2c0.8-0.4,1.4-0.2,1.4,0.6c0,0.2,0,0.6-0.3,1.1c-0.2,0.5-0.4,1.2-0.1,1.4
			c0.4,0.3,1.5-0.3,3.4-1.4l0.4-0.2c0-0.6-0.1-1.2-0.1-1.7c-0.1-1.7-0.2-2.9,0.2-3.6c0.4-0.7,0.9-0.7,1.2-0.6c0.3,0.1,0.5,0,0.6,0
			c0.5-0.3,0.9-1.3,0.9-2.2C51.5,28,51.1,27.5,50.6,27.8z"/>
		<path class="st12" d="M39.8,36.3c0,0.1,0,0.2-0.3,0.3c-0.1,0.2-0.3,0.3-0.5,0.3c-0.2,0-0.5,0.1-0.9,0c-0.3,0-0.5-0.1-0.8-0.2
			c-0.5-0.2-0.9-0.6-1.5-0.7c-0.6-0.2-2.5-0.7-3.2-1c-0.7-0.3-1-0.4-1.3-0.8c-0.3-0.4-2.4-2.5-2.9-3.4c-0.5-1-0.3-2,0.6-2.4
			c1,0.3,1.5,1.6,1.5,1.6l2.5,3c0,0,2.5,1.2,3.3,1.5c0.4,0.1,0.9-0.1,1.4-0.1c0.1,0,0.2,0,0.3,0l0,0.6c-0.1,0-0.2,0-0.3,0.1
			c-0.1,0,0.1,0.2,0.3,0.3c0.1,0.1,0.3,0.1,0.5,0.1c0.6,0.1,1.2,0.1,1.4,0.4C40.1,36.3,40,36.3,39.8,36.3z"/>
		<path class="st15" d="M34,33.5l-0.8-0.5l-2.4-2.9c0,0-0.7-1.5-1.5-1.7c-0.7,0.3-1,0.8-1.1,1.1c-0.1,0.2-0.2,1.2,0.5,2.1
			c0.8,1,2,2.2,2.5,2.7c0.3,0.3,0.6,0.4,1.1,0.6c0.5,0.2,0.9,0.3,0.9,0.3C33.7,34.8,34,34.3,34,33.5z"/>
	</g>
	<g id="Chartacter_00000150098139289133220290000005037121317606044045_">
		<g id="Bottom_00000124858965129860360500000002597731570510407325_">
			<g>
				<path class="st21" d="M64.3,51.9l0.1-1.8l-2.1,0.3c0,0,0.1,1,0.1,1.5c0,0.3-0.4,1-0.4,1s1,0.5,1.5,0.3c0.5-0.2,0.8-0.9,0.7-1
					C64.3,52,64.3,51.9,64.3,51.9z"/>
				<path class="st9" d="M59.4,55.1c0,0-0.1,0.3,0.1,0.5c0.2,0.2,0.8,0.4,1.6,0.3c0.8-0.1,1.2-0.4,1.5-0.6c0.3-0.3,0.7-0.6,1.1-0.7
					c0.3-0.1,0.7-0.2,0.8-0.3c0.1-0.1,0.1-0.5,0.1-0.5L59.4,55.1z"/>
				<path id="XMLID_00000065062170536110913600000010720665358170493117_" class="st13" d="M64.3,51.9c0,0,0.1,0,0.1,0.1
					c0,0.1,0.1,0.5,0.1,0.7c0.1,0.3,0.2,0.8,0.1,1c0,0.2-0.6,0.4-0.9,0.5c-0.4,0.1-0.8,0.4-1.1,0.7c-0.4,0.3-1.1,0.6-1.7,0.7
					c-0.6,0-1.3-0.1-1.5-0.4c-0.2-0.3-0.4-0.7,0.5-1.1c0.2-0.1,0.8-0.4,1-0.6c0.5-0.4,0.9-0.7,1.2-1.3c0-0.1,0.1-0.1,0.1-0.2
					c0.1,0,0.1,0,0.2,0c0.2,0,0.8,0.1,0.9,0.1c0.1,0.1,0.3,0.1,0.3,0.3c0,0.1,0,0.1,0,0.2c0,0,0,0.1,0,0.1c0,0,0.1,0,0.1,0
					c0.1-0.1,0.2-0.2,0.2-0.3c0-0.1,0.1-0.1,0.1-0.1c0,0,0.1-0.1,0.2-0.1C64.3,52.1,64.3,52,64.3,51.9z"/>
				<path class="st11" d="M62.6,55c0.2-0.1,0.3-0.3,0.5-0.4l0,0c0,0-1.1,0.7-1.5,0.4c-0.3-0.2-0.2-0.4-0.2-0.5c0-0.1-1-0.5-1.3-0.5
					l0,0c-0.1,0-0.1,0.1-0.2,0.1c-0.9,0.4-0.7,0.8-0.5,1.1c0.2,0.3,0.7,0.5,1.5,0.4C61.4,55.6,62.2,55.3,62.6,55z"/>
				<path class="st11" d="M61.5,54.4c-0.6,0.2-0.3,0.3-0.2,0.3c0.2,0,1.1-0.5,1.7-1c0.6-0.5,1-1,1.2-1.2c0.1-0.1,0.2-0.1,0.2-0.2
					c0-0.1,0-0.2,0-0.3c0-0.1-0.1-0.1-0.1-0.1c0,0.1,0,0.1,0,0.2c0,0-0.1,0.1-0.2,0.1c-0.1,0-0.1,0.1-0.1,0.1
					c-0.1,0.1-0.1,0.2-0.2,0.3C63.2,53.3,62.1,54.1,61.5,54.4z"/>
				<g>
					<g>
						<path class="st9" d="M61.4,54.6C61.4,54.6,61.4,54.6,61.4,54.6C61.4,54.6,61.4,54.5,61.4,54.6c-0.1-0.3-0.9-0.7-1.3-0.6
							c0,0-0.1,0,0,0.1c0,0,0,0,0.1,0C60.5,54,61.2,54.5,61.4,54.6C61.4,54.6,61.4,54.6,61.4,54.6z"/>
					</g>
					<g>
						<path class="st9" d="M61.9,54.3C61.9,54.3,61.9,54.3,61.9,54.3C61.9,54.3,61.9,54.2,61.9,54.3c-0.1-0.3-0.9-0.7-1.3-0.6
							c0,0-0.1,0,0,0.1c0,0,0,0,0.1,0C61,53.7,61.7,54.1,61.9,54.3C61.8,54.3,61.9,54.3,61.9,54.3z"/>
					</g>
					<g>
						<path class="st9" d="M62.4,54C62.4,54,62.4,54,62.4,54C62.4,54,62.4,54,62.4,54c-0.1-0.3-0.9-0.7-1.3-0.6c0,0-0.1,0,0,0.1
							c0,0,0,0,0.1,0C61.4,53.5,62.2,53.9,62.4,54C62.3,54,62.3,54,62.4,54z"/>
					</g>
					<g>
						<path class="st9" d="M62.8,53.7C62.8,53.7,62.8,53.7,62.8,53.7C62.9,53.7,62.9,53.6,62.8,53.7c-0.1-0.3-0.9-0.7-1.3-0.6
							c0,0-0.1,0,0,0.1c0,0,0,0,0.1,0C61.9,53.1,62.6,53.5,62.8,53.7C62.8,53.7,62.8,53.7,62.8,53.7z"/>
					</g>
					<g>
						<path class="st9" d="M63.2,53.4C63.3,53.4,63.3,53.4,63.2,53.4C63.3,53.3,63.3,53.3,63.2,53.4c-0.2-0.3-1-0.7-1.4-0.6
							c0,0-0.1,0,0,0.1c0,0,0,0,0.1,0C62.2,52.8,63,53.1,63.2,53.4C63.2,53.4,63.2,53.4,63.2,53.4z"/>
					</g>
				</g>
			</g>
			<g>
				<path class="st21" d="M68.5,52.7L68,51l2.1-0.4l0.1,1.7c0,0,0.2,0.6,0.1,0.8c-0.1,0.2-1.5,0.5-1.7,0.4
					C68.6,53.3,68.5,52.7,68.5,52.7z"/>
				<path class="st9" d="M68.8,56.5c0.1,0.5,0.2,0.9,0.4,1.2c0.2,0.3,0.7,0.3,1.1,0.2c0.4-0.2,0.9-0.5,1-1c0.1-0.5,0-0.8-0.1-1.3
					L68.8,56.5z"/>
				<path id="XMLID_00000013880222838951787020000003310119351930782592_" class="st13" d="M70.3,52.3c0.2,0,0.2,0.7,0.3,1.4
					c0.2,0.8,0.5,1,0.6,1.7c0.2,0.7,0.2,1-0.1,1.5c-0.2,0.5-1.2,1.1-1.8,0.5c-0.5-0.4-0.5-1-0.5-1.7c0-0.8,0-1.3-0.1-1.9
					c-0.1-0.5-0.3-1-0.1-1.1c0,0.1,0,0.2,0.1,0.3c0,0.1,0.1,0.4,0.2,0.3c0-0.1,0-0.1,0-0.2c0-0.1,0-0.1,0-0.2c0-0.1,0.2-0.1,0.3-0.1
					c0.2-0.1,0.5-0.1,0.6-0.2c0.1,0,0.2,0,0.3-0.1c0.1,0,0.1,0,0.2,0c0,0,0.1,0,0.1,0.1c0,0,0,0.1,0,0.1c0,0.1,0,0.1,0,0.1
					c0,0,0,0,0.1,0c0,0,0,0,0,0c0-0.1,0-0.1,0-0.3c0,0,0-0.1,0-0.2C70.3,52.4,70.3,52.3,70.3,52.3z"/>
				<path class="st11" d="M71.1,55.2c0,0.1,0.2,0.8,0,0.9c-0.2,0.2-0.4-0.4-0.4-0.4s-0.6-0.1-1.3,0.4c0.1,0.1,0,0.5-0.3,0.5
					c-0.2,0-0.4-0.8-0.4-0.8c0,0.7,0.1,1.2,0.5,1.7c0.6,0.5,1.5,0,1.8-0.5c0.2-0.5,0.3-0.8,0.1-1.5C71.2,55.3,71.1,55.2,71.1,55.2z"
					/>
				<path class="st11" d="M70.7,55.8c0,0.3,0.3,0.1,0.3-0.2c0-0.4-0.3-1.2-0.4-1.9c-0.1-0.9-0.1-1.4-0.3-1.4c0,0,0,0,0,0l0.1,0.4
					c0,0.1,0,0.1,0,0.2c0.1,0.5,0.1,1.6,0.2,2.1C70.6,55.4,70.6,55.6,70.7,55.8z"/>
				<path class="st11" d="M69.5,56.1c-0.1-0.2-0.1-0.4-0.2-0.9c-0.1-0.5-0.4-1.4-0.6-1.9c0-0.1-0.1-0.2-0.1-0.3c0-0.1,0-0.2-0.1-0.2
					c0,0,0,0,0,0c-0.1,0.1-0.1,0.5,0,0.7c0.1,0.2,0.1,0.4,0.2,0.7c0.2,0.6,0.2,1.5,0.4,1.9C69.3,56.4,69.6,56.4,69.5,56.1z"/>
				<g>
					<g>
						<path class="st9" d="M69.4,56.2C69.4,56.2,69.4,56.1,69.4,56.2c0,0,0.6-0.4,1.3-0.3c0,0,0.1,0,0.1-0.1c0,0,0-0.1-0.1-0.1
							C70,55.6,69.4,56,69.4,56.2C69.3,56.1,69.3,56.1,69.4,56.2C69.3,56.2,69.4,56.2,69.4,56.2z"/>
					</g>
					<g>
						<path class="st9" d="M69.2,55.6C69.2,55.6,69.2,55.6,69.2,55.6c0,0,0.7-0.4,1.5-0.4c0,0,0.1,0,0.1-0.1c0,0,0-0.1-0.1-0.1
							c-0.8,0-1.5,0.4-1.5,0.4C69.1,55.5,69.1,55.6,69.2,55.6C69.1,55.6,69.2,55.6,69.2,55.6z"/>
					</g>
					<g>
						<path class="st9" d="M70.6,54.7C70.6,54.7,70.6,54.7,70.6,54.7c0.1-0.1,0-0.1,0-0.1c-0.8-0.1-1.5,0.4-1.5,0.4c0,0,0,0.1,0,0.1
							c0,0,0.1,0,0.1,0C69.1,55,69.8,54.6,70.6,54.7C70.6,54.7,70.6,54.7,70.6,54.7z"/>
					</g>
					<g>
						<path class="st9" d="M70.5,54.2C70.5,54.2,70.5,54.2,70.5,54.2c0.1-0.1,0-0.1,0-0.1c-0.9-0.1-1.5,0.4-1.6,0.4c0,0,0,0.1,0,0.1
							c0,0,0.1,0,0.1,0C69,54.5,69.7,54.1,70.5,54.2C70.5,54.2,70.5,54.2,70.5,54.2z"/>
					</g>
					<g>
						<path class="st9" d="M70.4,53.6C70.4,53.6,70.4,53.6,70.4,53.6c0.1-0.1,0-0.1,0-0.1c-0.8-0.1-1.5,0.4-1.6,0.4c0,0,0,0.1,0,0.1
							c0,0,0.1,0,0.1,0C68.9,54,69.6,53.5,70.4,53.6C70.4,53.6,70.4,53.6,70.4,53.6z"/>
					</g>
				</g>
			</g>
			<g>
				<path id="XMLID_00000059989126681424666530000014517263000247191685_" class="st11" d="M68.4,33.8c0.6,4.2,0.9,10.3,0.9,10.3
					c0.1,0.3,0.3,1.3,0.6,2.8c0.3,1.4,0.4,4.3,0.4,4.5c0,0-1.1,0.8-2,0.5c0,0-1.4-4.3-2-6.2c-0.6-1.8-1.4-4.8-1.4-4.8L64.6,44
					c0,0,0.2,1.2,0.2,2.1c0,1-0.4,4.9-0.4,4.9s-1.1,0.7-2.1,0c0,0-0.9-5.7-1-6.9c-0.2-2.3-0.5-7.1-0.4-9.9L68.4,33.8z"/>
				<path id="XMLID_00000136396197187658233380000001110738266156938164_" class="st9" d="M64.8,40.9l-0.7-3c0,0-1.1-0.1-1.7-0.6
					c0,0,0.4,0.7,1.5,0.9l0.7,2.7l0.1,3L64.8,40.9z"/>
			</g>
		</g>
		<g id="Top_00000049198543510748853100000012208840906204268946_">
			<g id="Arm_00000052805834073850946760000018358998421029214345_">
				<g>
					<path class="st21" d="M57.5,22.4c0.2,1,0.1,0.9,0.7,1.6c1.2,1.6,2.6,3.5,2.6,3.5c1.3,0.5,1.4-1.2,2.1-2c-0.7-0.7-1-0.7-1.8-1.7
						c-0.5-0.6-1.4-1.6-1.4-1.6s-0.4-1-0.7-2c-0.4-1.2-0.6-1.4-0.4-2c0.1-0.3,0.1-0.6,0.1-0.8c0.1-0.4,0-0.8,0.1-1.2
						c0,0,0-0.1,0-0.1c0-0.1-0.2,0-0.2,0c-0.1,0.1-0.1,0.2-0.2,0.3c0,0.1-0.1,0.3-0.1,0.4c0,0,0,0.2-0.1,0.2c-0.1,0,0-0.1,0-0.2
						c0-0.1,0-0.3,0-0.4c0-0.3,0-0.7,0-1c0,0,0-0.1,0-0.1c0-0.2-0.3-0.2-0.3,0c0,0.1,0,0.1,0,0.2c0,0.2-0.1,0.3-0.1,0.5
						c0,0.1,0,0.1,0,0.2c0,0,0,0.1-0.1,0.1c0,0,0,0,0,0c0-0.2,0-0.5,0-0.7c0-0.1,0-0.2,0-0.3c0-0.1,0-0.2,0-0.3c0,0,0,0-0.1,0
						c-0.1,0-0.2,0-0.2,0.1c0,0-0.1,0.1-0.1,0.1c0,0,0,0.1,0,0.2c-0.1-0.1-0.2-0.1-0.3,0c-0.1,0.2-0.1,0.3-0.1,0.6
						c0,0.3,0,0.4,0,0.7c0,0.1,0,0.1,0,0c0-0.1,0-0.1,0-0.2c0-0.1,0-0.1,0-0.2c0-0.1,0-0.4,0-0.4c0,0-0.1,0-0.2,0
						c0,0-0.1,0.1-0.1,0.1c-0.1,0.3-0.1,0.5-0.1,0.8c0,0.2,0,0.4,0.1,0.7c0,0.4,0.1,0.8,0.3,1.2c0.1,0.1,0.1,0.3,0.2,0.4
						c0.1,0.5,0.2,1.1,0.3,1.7C57.3,21.2,57.4,21.6,57.5,22.4z"/>
					<path class="st22" d="M57.9,17.2c-0.4,0-0.5,0.5-0.6,0.8c0,0.1,0,0.2,0.1,0.1c0,0,0-0.1,0.1-0.1c0-0.1,0.1-0.2,0.1-0.2
						c0.1-0.1,0.2-0.3,0.3-0.3C57.9,17.3,58,17.3,57.9,17.2C58,17.2,57.9,17.2,57.9,17.2C57.9,17.2,57.9,17.2,57.9,17.2z"/>
					<g>
						<path class="st22" d="M57.3,15.3c0,0.4,0,0.9-0.1,1.3C57.1,16.2,57.2,15.7,57.3,15.3L57.3,15.3z"/>
					</g>
				</g>
				<path class="st11" d="M62.6,25.2c-0.5-0.4-1.1-1.1-1.6-1.6c-0.5-0.5-1.2-1.4-1.2-1.4l-1-2.6c0,0-0.1,0.3-0.7,0.5
					c-0.6,0.2-0.9,0-0.9,0s0.1,1.3,0.3,2.3c0.2,0.9,0.1,1,0.7,1.8c0.6,0.9,2.2,3,2.6,3.5s0.9,1.5,0.9,1.5
					C61.7,29.2,62.6,25.2,62.6,25.2z"/>
			</g>
			<g id="Piece_00000007399003901422937570000010118674623466368409_">
				<path class="st11" d="M68.4,6c-0.1-0.1-0.3-0.1-0.5,0c-0.1,0.1-0.4,0.3-0.6,0.7c-0.2,0.3-0.5,0.6-0.7,0.8
					c-0.2-0.7-0.1-2.2,0-4.1l0-0.6l-0.7-0.4c-0.4,0.3-0.9,0.5-1.3,0.8c-1,0.6-1.9,1.1-2.4,1.3c0-0.4,0.1-0.9,0.3-1.3
					c0.2-0.5,0.2-0.8,0.2-1c0-0.3-0.1-0.5-0.3-0.6c-0.1-0.1-0.6-0.3-0.7-0.4c-0.2-0.1-0.6-0.1-0.9,0.1c-0.7,0.4-1.2,1.3-1.2,2
					c0,0.2,0,0.5,0.2,0.7c0.3,0.3,0.4,0.9,0.1,1.5C59.5,6,58.9,6.4,58,7c-0.3,0.2-0.6,0.3-0.9,0.5c-0.4,0.2-0.8,0.4-1.2,0.7
					c0,0.7-0.1,1.4-0.1,2c-0.1,1.8-0.2,3.3,0.1,3.5c0,0,0,0,0,0c0.1,0.1,0.7,0.4,0.7,0.4c0.3,0.2,0.7-0.3,1-0.7
					c0.3-0.5,0.6-0.7,0.7-0.8c0.1,0,0.1-0.1,0.2-0.1c0.1,0.2,0.2,0.5,0.2,0.9c0,1-0.5,2.1-1.1,2.5c-0.2,0.1-0.4,0.2-0.7,0.1
					c-0.3-0.1-0.7-0.1-1,0.5c-0.4,0.7-0.3,1.8-0.1,3.4c0,0.5,0.1,1.1,0.1,1.7c0,0,0,0,0,0l0.7,0.4c0,0,0,0,0,0s1.2-0.6,1.6-0.9
					c1.1-0.6,1.9-1,2.2-1.6c0.3-0.5,0.1-1-0.1-1.3c-0.2-0.3-0.3-0.6-0.3-0.8c0-0.8,0.6-1.8,1.4-2.2c0.2-0.1,0.4-0.2,0.6-0.2
					c0,0.1,0.1,0.3,0.1,0.4c0,0.2,0,0.6-0.3,1.1c-0.2,0.5-0.4,1.2-0.1,1.4c0,0,0,0,0,0c0.1,0.1,0.7,0.4,0.7,0.4
					c0.3,0.2,1.1-0.3,2.3-1.1c0.5-0.3,1.1-0.7,1.8-1.1c-0.1-2.9-0.1-4.9,0.3-5.8c0.4-0.6,0.9-0.7,1.2-0.6c0.3,0.1,0.5,0,0.6,0
					c0.5-0.3,0.9-1.3,0.9-2.2c0-0.6-0.2-1-0.4-1.2C69,6.3,68.6,6,68.4,6z"/>
				<path class="st13" d="M69.6,7.5c0-0.6-0.2-1-0.4-1.2C69,6.3,68.6,6,68.4,6c-0.1-0.1-0.3-0.1-0.5,0c-0.1,0.1-0.4,0.3-0.6,0.7
					c-0.2,0.3-0.5,0.6-0.7,0.8c-0.2-0.7-0.1-2.2,0-4.1l0-0.6l-0.7-0.4c-0.4,0.3-0.9,0.5-1.3,0.8c-1,0.6-1.9,1.1-2.4,1.3
					c0-0.4,0.1-0.9,0.3-1.3c0.2-0.5,0.2-0.8,0.2-1c0-0.3-0.1-0.5-0.3-0.6c-0.1-0.1-0.6-0.3-0.7-0.4c-0.2-0.1-0.6-0.1-0.9,0.1
					c-0.7,0.4-1.2,1.3-1.2,2c0,0.2,0,0.5,0.2,0.7c0.3,0.3,0.4,0.9,0.1,1.5C59.5,6,58.9,6.4,58,7c-0.3,0.2-0.6,0.3-0.9,0.5
					c-0.4,0.2-0.8,0.4-1.2,0.7l0.7,0.4l5.1-0.8l5.1,1.1L69.6,7.5C69.6,7.6,69.6,7.6,69.6,7.5z"/>
				<path class="st19" d="M69.6,7.5c0,0.9-0.4,1.9-0.9,2.2c-0.1,0.1-0.4,0.2-0.6,0c-0.3-0.1-0.8-0.1-1.2,0.6
					c-0.5,0.9-0.5,2.9-0.3,5.8c-0.6,0.4-1.2,0.8-1.8,1.1c-1.2,0.7-2,1.3-2.3,1c-0.3-0.2-0.1-0.9,0.1-1.4c0.2-0.5,0.3-0.9,0.3-1.1
					c0-0.8-0.6-1.1-1.4-0.6c-0.8,0.4-1.4,1.4-1.4,2.2c0,0.2,0,0.5,0.3,0.8c0.2,0.3,0.4,0.8,0.1,1.3c-0.3,0.6-1.1,1-2.2,1.6
					c-0.5,0.2-1.6,0.9-1.6,0.9s0,0,0,0c0-0.6-0.1-1.2-0.1-1.7c-0.1-1.6-0.2-2.8,0.1-3.4c0.3-0.5,0.7-0.6,1-0.5
					c0.3,0.1,0.6,0,0.7-0.1c0.6-0.3,1.1-1.4,1.1-2.5c0-1-0.5-1.6-1.1-1.2c-0.2,0.1-0.4,0.3-0.7,0.8c-0.3,0.5-0.7,0.9-1,0.7
					c-0.3-0.2-0.2-1.7-0.1-3.5c0-0.6,0.1-1.3,0.1-2c0.4-0.2,0.8-0.5,1.2-0.7c0.3-0.2,0.6-0.3,0.9-0.5c0.9-0.5,1.5-1,1.8-1.6
					c0.3-0.7,0.2-1.2-0.1-1.5c-0.2-0.2-0.2-0.5-0.2-0.7c0-0.7,0.6-1.6,1.2-2c0.7-0.4,1.2-0.2,1.2,0.5c0,0.2,0,0.5-0.2,1
					c-0.3,0.6-0.4,1.4-0.1,1.7c0.4,0.3,1.5-0.3,2.9-1.2c0.4-0.2,0.8-0.5,1.3-0.8l0,0.6c-0.1,2.5-0.2,4.2,0.3,4.6
					c0.4,0.2,0.9-0.3,1.2-0.8c0.3-0.4,0.5-0.6,0.6-0.7C69.2,6.1,69.6,6.6,69.6,7.5z"/>
			</g>
			<g id="Chest_00000051365448945902719470000007137074085711732108_">
				<path id="Chest_00000065771582279412035280000006921486978996432526_" class="st23" d="M65.9,25.7c0.4,0.1,1.8,0.6,2.3,0.8
					c0,0,0.6,1.2,0.3,4c0,0.4-0.1,1.6-0.2,2.5c-0.1,1.2,0,1.6,0,2.2c0,0-1.1,1-4.2,0.8C61.8,36,61,35,61,35s0-3.2,0-4.9
					c0-2.3,0.7-3.6,1.2-4l1.5-0.3L65.9,25.7z"/>
				<g>
					<path class="st13" d="M66.1,25.7l0,0.2c0,0-0.5,1.4-0.6,4.1c0,2.7,0.1,7,0.1,7s1.8-0.1,3.1-1.1c0,0-0.3-2.3-0.3-3.4
						c0-1.1,0.3-2.6,0.6-4.1c0.3-1.5-1.9-3.6-1.9-3.6C66.9,25.1,66.5,25.5,66.1,25.7z"/>
					<path class="st13" d="M63.8,25.6c-0.6,0-0.7-0.1-1.2-0.4c0,0-1.2,1.4-1.5,3.5c-0.3,2.1-0.4,7.2-0.4,7.2c0.2,0.1,0.8,0.3,1,0.4
						c0,0,0.1-2.5,0.2-4.8c0.1-2.8,0.3-4.6,1.9-5.7L63.8,25.6z"/>
					<path class="st24" d="M66.6,30.3c-0.3,0.3-0.5,0.5-0.8,0.8C66.1,30.9,66.4,30.6,66.6,30.3l0.1,0c-0.1-0.2-0.2-0.5-0.3-0.7
						c0,0-0.3-0.5-0.3-0.6c0.2-0.1,0.5-0.2,0.7-0.3l0,0l0,0c0-0.8,0-1.7,0-2.5c-0.1,0.8-0.1,1.7-0.1,2.5c-0.3,0.1-0.6,0.2-0.8,0.3
						l0,0.1C66.1,29.4,66.4,29.9,66.6,30.3z M61.2,29.6L61.2,29.6c0.2,0.4,0.3,0.7,0.5,1.1c-0.1-0.4-0.3-0.7-0.4-1.1
						c0.2-0.3,0.4-0.6,0.6-0.9l0,0l0,0l-0.3-0.4c0.1-0.2,0.1-0.4,0.2-0.6c0.3-0.6,0.6-1.1,1-1.6c-0.6,0.6-1.1,1.4-1.3,2.2
						c0,0,0,0,0,0l0.3,0.4C61.5,28.9,61.4,29.2,61.2,29.6L61.2,29.6z"/>
				</g>
			</g>
			<g>
				<g id="Head_00000078738990981868717880000017036297375402221227_">
					<g>
						<g id="XMLID_00000029749340649070971700000018321113064062813101_">
							<g id="XMLID_00000099657568248144820870000004410764897306253456_">
								<path class="st9" d="M66.5,20.9c0,0,0.4,0,0.6,0.4c0.2,0.3,0.3,0.9,0.1,1.6c-0.3,0.7-0.8,1.5-1,1.7
									c-0.1,0.2-0.4,0.3-0.4,0.3l0.1-0.9l0.1-0.6c0,0-0.5-0.5-0.5-1c0-0.6,0.2-0.9,0.2-0.9L66.5,20.9z"/>
								<path class="st9" d="M63.3,21.9c0.3-0.1,0.6-0.1,0.8-0.1c0.3,0,0.5,0,0.8,0c0.3,0,0.6,0,0.8,0c0,0,0.9-0.1,0.9-0.7
									c0-0.3-0.1-0.5-0.2-0.6c-0.1-0.2-0.3-0.3-0.4-0.5c-0.4-0.3-0.7-0.4-1.2-0.5c-0.3,0-0.7,0-1,0c-0.2,0-0.5,0.1-0.7,0
									c-0.2,0-0.3-0.1-0.4-0.3c-0.2,0.2-0.2,0.5-0.1,0.8c-0.2,0-0.4,0.1-0.5,0.4c-0.1,0.2,0,0.4,0.2,0.6c0,0-0.1,0.1-0.1,0.2
									c-0.1,0.1-0.1,0.2-0.1,0.3c0,0.2,0.2,0.3,0.3,0.4C62.8,22,63.1,22,63.3,21.9z"/>
								<path class="st21" d="M66.8,24.2c-0.5,0.2-0.7-0.2-0.7-0.2l0,1.8c-0.8,1.4-3.2,1.1-2.5,0l0-0.5c0,0-0.2,0-0.4-0.1
									c-0.7-0.1-0.8-0.5-0.9-1c-0.1-0.7-0.1-1.7,0.2-2.9c0.1-0.2,0.2-0.5,0.4-0.6c0.5-0.2,1,0.2,1.7,0.5c0.3,0.1,1,0.2,1.2,0.1
									c-0.3,0.3-0.3,1.1,0.1,1.5c0.1,0.1,0.1,0.2,0.2,0.2c0.1,0.1,0.3-0.2,0.4-0.3c0.1-0.1,0.6-0.2,0.8,0.2
									C67.5,23.5,67.3,24,66.8,24.2z"/>
								<path class="st22" d="M63.6,25.3c0.6,0,1,0,1.4-0.2c0.3-0.2,0.8-0.6,0.9-1c0,0.7-0.3,1-0.8,1.3c-0.5,0.2-1.1,0.3-1.5,0.3
									L63.6,25.3z"/>
							</g>
							<g id="XMLID_00000005975523842718131890000007948468663023711116_">
								<path id="XMLID_00000176018962264948251310000003843558256585292417_" class="st9" d="M64.5,21.9l0.4,0.3
									c0.1-0.1,0.1-0.3-0.1-0.4C64.8,21.8,64.6,21.8,64.5,21.9z"/>
								<path id="XMLID_00000134961348193590745600000007194962720239376019_" class="st9" d="M62.7,22l0.5-0.2
									c-0.1-0.1-0.2-0.2-0.3-0.1C62.7,21.7,62.7,21.9,62.7,22z"/>
								<path class="st9" d="M64.7,22.6c0,0.1-0.1,0.2-0.2,0.2c-0.1,0-0.2-0.1-0.2-0.2c0-0.1,0.1-0.2,0.2-0.2
									C64.6,22.4,64.7,22.5,64.7,22.6z"/>
								<path class="st9" d="M63.2,22.5c0,0.1-0.1,0.2-0.2,0.2c-0.1,0-0.2-0.1-0.2-0.2c0-0.1,0.1-0.2,0.2-0.2
									C63.1,22.2,63.2,22.3,63.2,22.5z"/>
								<path id="XMLID_00000075863519760702120350000006746055035840188059_" class="st22" d="M63.9,22.2l-0.2,1.3l-0.7-0.3
									C63.2,22.8,63.5,22.5,63.9,22.2z"/>
								<path id="XMLID_00000080185196083503345620000010099389425776352415_" class="st25" d="M64.3,23.7l-0.9,0.2
									c0.1,0.2,0.3,0.4,0.5,0.3C64.3,24.2,64.4,23.9,64.3,23.7z"/>
								<path class="st22" d="M63.8,24.2c0.1-0.2,0.3-0.4,0.5-0.4c0,0.2-0.1,0.4-0.3,0.4C64,24.2,63.9,24.2,63.8,24.2z"/>
							</g>
						</g>
					</g>
				</g>
			</g>
			<g id="Arm_00000036219391007204093760000015429294174840841859_">
				<g>
					<path class="st21" d="M64.8,15.8c0-0.1,0-0.1,0.1-0.1c0,0,0.1,0,0.2,0c0,0,0.1,0.1,0.1,0.1c0.1,0.1,0.2,0.3,0.3,0.4
						c0,0,0.2,0.3,0.2,0.1c0,0,0-0.1,0-0.1c-0.2-0.4-0.4-0.8-0.6-1.2c0-0.1-0.1-0.2,0-0.3c0.1-0.1,0.2,0,0.3,0.1
						c0,0,0.1,0.1,0.1,0.1c0.1,0.1,0.2,0.3,0.3,0.4c0,0.1,0.1,0.1,0.1,0.2c0,0,0.1,0.1,0.1,0c0,0,0,0,0,0c-0.1-0.2-0.2-0.4-0.3-0.6
						c0-0.1-0.1-0.2-0.1-0.3c0-0.1-0.1-0.2-0.1-0.3c0,0,0,0,0.1-0.1c0.1,0,0.2,0,0.3,0c0,0,0.1,0.1,0.1,0.1c0,0,0.1,0.1,0.1,0.1
						c0-0.1,0.2-0.2,0.3-0.1c0.2,0.1,0.2,0.3,0.3,0.5c0.1,0.2,0.2,0.4,0.3,0.6c0.1,0.2,0.1,0.3,0.2,0.5c0,0,0,0.1,0.1,0.1
						c0-0.3-0.2-0.7,0.1-0.9c0,0,0,0,0.1,0c0.1,0,0.3,0.7,0.3,0.8c0.1,0.2,0.1,0.4,0.1,0.6c0,0.2,0,0.4,0,0.6c0,0.2,0.1,0.3,0.2,0.5
						c0.1,0.2,0.3,0.4,0.6,0.7c0.3,0.3,0.6,0.5,0.9,1c-0.2,0.2-0.5,0.3-0.7,0.5c-0.3,0.2-0.7,0.3-1,0.3c-0.3-0.5-0.5-0.8-0.8-1.3
						c0,0,0,0,0-0.1c0,0,0-0.1-0.1-0.1c-0.3-0.3-0.6-0.5-0.9-0.9c-0.2-0.3-0.4-0.6-0.6-0.9c-0.1-0.1-0.1-0.3-0.2-0.4
						c-0.1-0.1-0.2-0.3-0.2-0.4C64.8,15.9,64.8,15.8,64.8,15.8C64.8,15.8,64.8,15.8,64.8,15.8z"/>
					<g>
						<path class="st22" d="M65.9,14.4c0.2,0.4,0.3,0.8,0.6,1.2C66.3,15.2,66.1,14.8,65.9,14.4L65.9,14.4z"/>
					</g>
				</g>
				<path class="st11" d="M67.2,24.7c0.4-0.6,0.7-1.4,0.9-2c0.3-0.6,0.4-1.1,0.4-1.1l-1.7-3c0,0,0.2,0.1,0.8-0.3
					c0.6-0.3,0.5-0.6,0.5-0.6s1.8,1.7,2.5,2.5c0.6,0.7,0.6,1,0.3,2c-0.3,1-1.1,3.3-1.3,4c-0.2,0.6-0.6,2.1-0.6,2.1
					C68.2,28.5,66.9,26.7,67.2,24.7z"/>
			</g>
		</g>
	</g>
	<g class="st26">
		<g>
			<path class="st27" d="M42.4,19.6l1.9-0.2c0.2,0,0.3,0.1,0.4,0.2c0.1,0.2,0.2,0.3,0.4,0.5c0.2,0.3,0.5,0.6,0.8,0.9
				c0.1,0.1,0.2,0.3,0.1,0.5l-0.7,1.9c-0.1,0.2,0,0.4,0.2,0.5l1.7,0.8c0.2,0.1,0.4,0,0.5-0.1l1-1.6c0.1-0.2,0.3-0.2,0.5-0.2
				c0.8,0.2,1.6,0.3,2.4,0.2c0.2,0,0.4,0.1,0.4,0.3l0.3,1.1c0.1,0.2,0.3,0.3,0.5,0.3l1.8-0.4c0,0,0.1,0,0.1,0
				c0.2-0.1,0.3-0.2,0.2-0.4l-0.2-1.5l0-0.4c0.3-0.2,0.6-0.4,0.9-0.6c0.4-0.3,0.7-0.6,1-1c0.1-0.1,0.3-0.2,0.5-0.1l1.5,0.6
				c0.2,0.1,0.4,0,0.5-0.2l0.6-1.3l0.2-0.4c0.1-0.2,0-0.4-0.2-0.6l-1.3-0.8c-0.2-0.1-0.2-0.3-0.2-0.5c0.1-0.5,0.2-1.1,0.2-1.6
				c0,0,0-0.1,0-0.1c0,0,0,0,0,0c0-0.2,0.1-0.3,0.3-0.4l1.8-0.6c0,0,0,0,0.1,0c0.2-0.1,0.3-0.3,0.2-0.5l-0.4-1.8
				c0-0.2-0.2-0.4-0.5-0.3l-2,0.2c-0.2,0-0.3-0.1-0.4-0.2c-0.2-0.3-0.4-0.7-0.6-1c-0.1-0.2-0.3-0.3-0.4-0.5
				c-0.1-0.1-0.1-0.3-0.1-0.5l0.7-1.8c0.1-0.2,0-0.4-0.2-0.5l-1.7-0.8c-0.2-0.1-0.4,0-0.6,0.2l-0.8,1.3c-0.1,0.2-0.3,0.2-0.5,0.2
				c-0.7-0.3-1.5-0.4-2.3-0.4c-0.2,0-0.3-0.1-0.4-0.3l-0.5-1.6c-0.1-0.2-0.3-0.3-0.5-0.3l-1.8,0.4c-0.2,0-0.4,0.2-0.3,0.5l0,0.1
				l0.2,1.7c0,0.2-0.1,0.4-0.2,0.4l0,0c-0.4,0.2-0.8,0.4-1.1,0.7c-0.2,0.1-0.4,0.3-0.5,0.5c-0.1,0.1-0.3,0.1-0.4,0.1L44,9.5
				c-0.2-0.1-0.5,0-0.6,0.2l-0.8,1.6c0,0,0,0.1,0,0.1c0,0.2,0.1,0.3,0.2,0.4l1.1,0.7c0.1,0.1,0.2,0.2,0.2,0.4c0,0,0,0.1,0,0.1
				c-0.3,0.9-0.5,1.9-0.4,2.9c0,0.2-0.1,0.3-0.2,0.4c0,0,0,0-0.1,0l-1.4,0.4c-0.2,0.1-0.3,0.3-0.3,0.5l0,0l0.3,1.8
				C42,19.5,42.2,19.6,42.4,19.6z M54.9,14.1c0.1,0.3,0.2,0.6,0.3,0.9c0.1,0.6,0,1.6-0.3,2.1c0,0.1-0.1,0.1-0.1,0.2
				c-1.9,3.5-6.9,2.8-7.7-1.2c-0.1-0.5,0-1.3,0.2-1.9c0-0.1,0.1-0.3,0.1-0.4c0.3-0.5,0.6-0.9,0.9-1.3C50.3,10.7,53.8,11.3,54.9,14.1
				z"/>
		</g>
	</g>
</g>
<g>
	<path class="st28" d="M103.8,59.1H1.7c-0.1,0-0.1-0.1-0.1-0.1l0,0c0-0.1,0.1-0.1,0.1-0.1h102.1C103.9,58.9,103.9,59,103.8,59.1
		L103.8,59.1L103.8,59.1z"/>
</g>
</svg>
